<mxfile host="app.diagrams.net" modified="2023-05-16T02:22:22.874Z" agent="Mozilla/5.0 (Windows NT 10.0; Win64; x64) AppleWebKit/537.36 (KHTML, like Gecko) Chrome/113.0.0.0 Safari/537.36" etag="JQ2lryoJLZ-bqf6Yvdjn" version="21.1.1" type="device">
  <diagram name="Page-1" id="rPNpaBPgo0Eo2WTwkWcl">
    <mxGraphModel dx="1434" dy="739" grid="1" gridSize="10" guides="1" tooltips="1" connect="1" arrows="1" fold="1" page="1" pageScale="1" pageWidth="1169" pageHeight="1654" math="0" shadow="0">
      <root>
        <mxCell id="0" />
        <mxCell id="1" parent="0" />
        <mxCell id="sZKUpHweLC7dckefDk7g-2" value="Relay Board" style="rounded=0;whiteSpace=wrap;html=1;" vertex="1" parent="1">
          <mxGeometry x="260" y="160" width="80" height="30" as="geometry" />
        </mxCell>
        <mxCell id="sZKUpHweLC7dckefDk7g-3" value="Relay Board" style="rounded=0;whiteSpace=wrap;html=1;" vertex="1" parent="1">
          <mxGeometry x="360" y="160" width="80" height="30" as="geometry" />
        </mxCell>
        <mxCell id="sZKUpHweLC7dckefDk7g-4" value="Relay Board" style="rounded=0;whiteSpace=wrap;html=1;" vertex="1" parent="1">
          <mxGeometry x="460" y="160" width="80" height="30" as="geometry" />
        </mxCell>
        <mxCell id="sZKUpHweLC7dckefDk7g-5" value="Relay Board" style="rounded=0;whiteSpace=wrap;html=1;" vertex="1" parent="1">
          <mxGeometry x="560" y="160" width="80" height="30" as="geometry" />
        </mxCell>
        <mxCell id="sZKUpHweLC7dckefDk7g-6" value="MCU (ESP32)" style="whiteSpace=wrap;html=1;aspect=fixed;" vertex="1" parent="1">
          <mxGeometry x="750" y="230" width="50" height="50" as="geometry" />
        </mxCell>
        <mxCell id="sZKUpHweLC7dckefDk7g-7" value="DTSU666" style="rounded=0;whiteSpace=wrap;html=1;" vertex="1" parent="1">
          <mxGeometry x="190" y="350" width="70" height="30" as="geometry" />
        </mxCell>
        <mxCell id="sZKUpHweLC7dckefDk7g-8" value="DTSU666" style="rounded=0;whiteSpace=wrap;html=1;" vertex="1" parent="1">
          <mxGeometry x="280" y="350" width="70" height="30" as="geometry" />
        </mxCell>
        <mxCell id="sZKUpHweLC7dckefDk7g-9" value="DTSU666" style="rounded=0;whiteSpace=wrap;html=1;" vertex="1" parent="1">
          <mxGeometry x="370" y="350" width="70" height="30" as="geometry" />
        </mxCell>
        <mxCell id="sZKUpHweLC7dckefDk7g-10" value="DTSU666" style="rounded=0;whiteSpace=wrap;html=1;" vertex="1" parent="1">
          <mxGeometry x="460" y="350" width="70" height="30" as="geometry" />
        </mxCell>
        <mxCell id="sZKUpHweLC7dckefDk7g-11" value="DTSU666" style="rounded=0;whiteSpace=wrap;html=1;" vertex="1" parent="1">
          <mxGeometry x="550" y="350" width="70" height="30" as="geometry" />
        </mxCell>
        <mxCell id="sZKUpHweLC7dckefDk7g-12" value="DTSU666" style="rounded=0;whiteSpace=wrap;html=1;" vertex="1" parent="1">
          <mxGeometry x="640" y="350" width="70" height="30" as="geometry" />
        </mxCell>
        <mxCell id="sZKUpHweLC7dckefDk7g-13" value="" style="endArrow=classic;html=1;rounded=0;exitX=0.5;exitY=1;exitDx=0;exitDy=0;entryX=0.5;entryY=1;entryDx=0;entryDy=0;" edge="1" parent="1" source="sZKUpHweLC7dckefDk7g-7" target="sZKUpHweLC7dckefDk7g-6">
          <mxGeometry width="50" height="50" relative="1" as="geometry">
            <mxPoint x="540" y="460" as="sourcePoint" />
            <mxPoint x="640" y="460" as="targetPoint" />
            <Array as="points">
              <mxPoint x="225" y="470" />
              <mxPoint x="775" y="470" />
            </Array>
          </mxGeometry>
        </mxCell>
        <mxCell id="sZKUpHweLC7dckefDk7g-33" value="RS485 Serial Line" style="edgeLabel;html=1;align=center;verticalAlign=middle;resizable=0;points=[];" vertex="1" connectable="0" parent="sZKUpHweLC7dckefDk7g-13">
          <mxGeometry x="0.6458" relative="1" as="geometry">
            <mxPoint y="-62" as="offset" />
          </mxGeometry>
        </mxCell>
        <mxCell id="sZKUpHweLC7dckefDk7g-14" value="" style="endArrow=none;html=1;rounded=0;entryX=0.5;entryY=1;entryDx=0;entryDy=0;" edge="1" parent="1" target="sZKUpHweLC7dckefDk7g-8">
          <mxGeometry width="50" height="50" relative="1" as="geometry">
            <mxPoint x="315" y="470" as="sourcePoint" />
            <mxPoint x="600" y="370" as="targetPoint" />
          </mxGeometry>
        </mxCell>
        <mxCell id="sZKUpHweLC7dckefDk7g-15" value="" style="endArrow=none;html=1;rounded=0;" edge="1" parent="1" source="sZKUpHweLC7dckefDk7g-9">
          <mxGeometry width="50" height="50" relative="1" as="geometry">
            <mxPoint x="405" y="430" as="sourcePoint" />
            <mxPoint x="405" y="470" as="targetPoint" />
          </mxGeometry>
        </mxCell>
        <mxCell id="sZKUpHweLC7dckefDk7g-16" value="" style="endArrow=none;html=1;rounded=0;" edge="1" parent="1" source="sZKUpHweLC7dckefDk7g-10">
          <mxGeometry width="50" height="50" relative="1" as="geometry">
            <mxPoint x="495" y="430" as="sourcePoint" />
            <mxPoint x="495" y="470" as="targetPoint" />
          </mxGeometry>
        </mxCell>
        <mxCell id="sZKUpHweLC7dckefDk7g-17" value="" style="endArrow=none;html=1;rounded=0;" edge="1" parent="1" source="sZKUpHweLC7dckefDk7g-11">
          <mxGeometry width="50" height="50" relative="1" as="geometry">
            <mxPoint x="585" y="430" as="sourcePoint" />
            <mxPoint x="585" y="470" as="targetPoint" />
          </mxGeometry>
        </mxCell>
        <mxCell id="sZKUpHweLC7dckefDk7g-18" value="" style="endArrow=none;html=1;rounded=0;" edge="1" parent="1" source="sZKUpHweLC7dckefDk7g-12">
          <mxGeometry width="50" height="50" relative="1" as="geometry">
            <mxPoint x="675" y="430" as="sourcePoint" />
            <mxPoint x="675" y="470" as="targetPoint" />
          </mxGeometry>
        </mxCell>
        <mxCell id="sZKUpHweLC7dckefDk7g-19" value="" style="endArrow=classic;html=1;rounded=0;entryX=0.25;entryY=1;entryDx=0;entryDy=0;exitX=0;exitY=0.75;exitDx=0;exitDy=0;" edge="1" parent="1" source="sZKUpHweLC7dckefDk7g-6" target="sZKUpHweLC7dckefDk7g-2">
          <mxGeometry width="50" height="50" relative="1" as="geometry">
            <mxPoint x="390" y="280" as="sourcePoint" />
            <mxPoint x="440" y="230" as="targetPoint" />
            <Array as="points">
              <mxPoint x="280" y="270" />
            </Array>
          </mxGeometry>
        </mxCell>
        <mxCell id="sZKUpHweLC7dckefDk7g-34" value="Clock" style="edgeLabel;html=1;align=center;verticalAlign=middle;resizable=0;points=[];" vertex="1" connectable="0" parent="sZKUpHweLC7dckefDk7g-19">
          <mxGeometry x="0.6618" y="1" relative="1" as="geometry">
            <mxPoint as="offset" />
          </mxGeometry>
        </mxCell>
        <mxCell id="sZKUpHweLC7dckefDk7g-20" value="" style="endArrow=classic;html=1;rounded=0;entryX=0.5;entryY=1;entryDx=0;entryDy=0;exitX=0;exitY=0.5;exitDx=0;exitDy=0;" edge="1" parent="1" source="sZKUpHweLC7dckefDk7g-6" target="sZKUpHweLC7dckefDk7g-2">
          <mxGeometry width="50" height="50" relative="1" as="geometry">
            <mxPoint x="320" y="260" as="sourcePoint" />
            <mxPoint x="370" y="210" as="targetPoint" />
            <Array as="points">
              <mxPoint x="300" y="255" />
            </Array>
          </mxGeometry>
        </mxCell>
        <mxCell id="sZKUpHweLC7dckefDk7g-35" value="Latch" style="edgeLabel;html=1;align=center;verticalAlign=middle;resizable=0;points=[];" vertex="1" connectable="0" parent="sZKUpHweLC7dckefDk7g-20">
          <mxGeometry x="0.6272" y="1" relative="1" as="geometry">
            <mxPoint as="offset" />
          </mxGeometry>
        </mxCell>
        <mxCell id="sZKUpHweLC7dckefDk7g-21" value="" style="endArrow=classic;html=1;rounded=0;entryX=0.75;entryY=1;entryDx=0;entryDy=0;exitX=0;exitY=0.25;exitDx=0;exitDy=0;" edge="1" parent="1" source="sZKUpHweLC7dckefDk7g-6" target="sZKUpHweLC7dckefDk7g-2">
          <mxGeometry width="50" height="50" relative="1" as="geometry">
            <mxPoint x="350" y="250" as="sourcePoint" />
            <mxPoint x="400" y="200" as="targetPoint" />
            <Array as="points">
              <mxPoint x="320" y="243" />
            </Array>
          </mxGeometry>
        </mxCell>
        <mxCell id="sZKUpHweLC7dckefDk7g-36" value="Data" style="edgeLabel;html=1;align=center;verticalAlign=middle;resizable=0;points=[];" vertex="1" connectable="0" parent="sZKUpHweLC7dckefDk7g-21">
          <mxGeometry x="0.619" relative="1" as="geometry">
            <mxPoint as="offset" />
          </mxGeometry>
        </mxCell>
        <mxCell id="sZKUpHweLC7dckefDk7g-24" value="" style="endArrow=classic;html=1;rounded=0;entryX=0.25;entryY=1;entryDx=0;entryDy=0;exitX=0;exitY=0.75;exitDx=0;exitDy=0;" edge="1" parent="1" source="sZKUpHweLC7dckefDk7g-6" target="sZKUpHweLC7dckefDk7g-3">
          <mxGeometry width="50" height="50" relative="1" as="geometry">
            <mxPoint x="380" y="270" as="sourcePoint" />
            <mxPoint x="260" y="280" as="targetPoint" />
            <Array as="points">
              <mxPoint x="380" y="270" />
            </Array>
          </mxGeometry>
        </mxCell>
        <mxCell id="sZKUpHweLC7dckefDk7g-25" value="" style="endArrow=classic;html=1;rounded=0;entryX=0.5;entryY=1;entryDx=0;entryDy=0;exitX=0;exitY=0.5;exitDx=0;exitDy=0;" edge="1" parent="1" source="sZKUpHweLC7dckefDk7g-6" target="sZKUpHweLC7dckefDk7g-3">
          <mxGeometry width="50" height="50" relative="1" as="geometry">
            <mxPoint x="400" y="260" as="sourcePoint" />
            <mxPoint x="250" y="260" as="targetPoint" />
            <Array as="points">
              <mxPoint x="400" y="255" />
            </Array>
          </mxGeometry>
        </mxCell>
        <mxCell id="sZKUpHweLC7dckefDk7g-26" value="" style="endArrow=classic;html=1;rounded=0;entryX=0.75;entryY=1;entryDx=0;entryDy=0;exitX=0;exitY=0.25;exitDx=0;exitDy=0;" edge="1" parent="1" source="sZKUpHweLC7dckefDk7g-6" target="sZKUpHweLC7dckefDk7g-3">
          <mxGeometry width="50" height="50" relative="1" as="geometry">
            <mxPoint x="180" y="330" as="sourcePoint" />
            <mxPoint x="230" y="280" as="targetPoint" />
            <Array as="points">
              <mxPoint x="420" y="243" />
            </Array>
          </mxGeometry>
        </mxCell>
        <mxCell id="sZKUpHweLC7dckefDk7g-27" value="" style="endArrow=classic;html=1;rounded=0;entryX=0.25;entryY=1;entryDx=0;entryDy=0;exitX=0;exitY=0.75;exitDx=0;exitDy=0;" edge="1" parent="1" source="sZKUpHweLC7dckefDk7g-6" target="sZKUpHweLC7dckefDk7g-4">
          <mxGeometry width="50" height="50" relative="1" as="geometry">
            <mxPoint x="430" y="630" as="sourcePoint" />
            <mxPoint x="480" y="580" as="targetPoint" />
            <Array as="points">
              <mxPoint x="480" y="268" />
            </Array>
          </mxGeometry>
        </mxCell>
        <mxCell id="sZKUpHweLC7dckefDk7g-28" value="" style="endArrow=classic;html=1;rounded=0;entryX=0.5;entryY=1;entryDx=0;entryDy=0;exitX=0;exitY=0.5;exitDx=0;exitDy=0;" edge="1" parent="1" source="sZKUpHweLC7dckefDk7g-6" target="sZKUpHweLC7dckefDk7g-4">
          <mxGeometry width="50" height="50" relative="1" as="geometry">
            <mxPoint x="400" y="650" as="sourcePoint" />
            <mxPoint x="450" y="600" as="targetPoint" />
            <Array as="points">
              <mxPoint x="500" y="255" />
            </Array>
          </mxGeometry>
        </mxCell>
        <mxCell id="sZKUpHweLC7dckefDk7g-29" value="" style="endArrow=classic;html=1;rounded=0;entryX=0.75;entryY=1;entryDx=0;entryDy=0;exitX=0;exitY=0.25;exitDx=0;exitDy=0;" edge="1" parent="1" source="sZKUpHweLC7dckefDk7g-6" target="sZKUpHweLC7dckefDk7g-4">
          <mxGeometry width="50" height="50" relative="1" as="geometry">
            <mxPoint x="410" y="600" as="sourcePoint" />
            <mxPoint x="460" y="550" as="targetPoint" />
            <Array as="points">
              <mxPoint x="520" y="243" />
            </Array>
          </mxGeometry>
        </mxCell>
        <mxCell id="sZKUpHweLC7dckefDk7g-30" value="" style="endArrow=classic;html=1;rounded=0;entryX=0.25;entryY=1;entryDx=0;entryDy=0;exitX=0;exitY=0.75;exitDx=0;exitDy=0;" edge="1" parent="1" source="sZKUpHweLC7dckefDk7g-6" target="sZKUpHweLC7dckefDk7g-5">
          <mxGeometry width="50" height="50" relative="1" as="geometry">
            <mxPoint x="490" y="660" as="sourcePoint" />
            <mxPoint x="540" y="610" as="targetPoint" />
            <Array as="points">
              <mxPoint x="580" y="268" />
            </Array>
          </mxGeometry>
        </mxCell>
        <mxCell id="sZKUpHweLC7dckefDk7g-31" value="" style="endArrow=classic;html=1;rounded=0;entryX=0.5;entryY=1;entryDx=0;entryDy=0;exitX=0;exitY=0.5;exitDx=0;exitDy=0;" edge="1" parent="1" source="sZKUpHweLC7dckefDk7g-6" target="sZKUpHweLC7dckefDk7g-5">
          <mxGeometry width="50" height="50" relative="1" as="geometry">
            <mxPoint x="450" y="620" as="sourcePoint" />
            <mxPoint x="500" y="570" as="targetPoint" />
            <Array as="points">
              <mxPoint x="600" y="255" />
            </Array>
          </mxGeometry>
        </mxCell>
        <mxCell id="sZKUpHweLC7dckefDk7g-32" value="" style="endArrow=classic;html=1;rounded=0;entryX=0.75;entryY=1;entryDx=0;entryDy=0;exitX=0;exitY=0.25;exitDx=0;exitDy=0;" edge="1" parent="1" source="sZKUpHweLC7dckefDk7g-6" target="sZKUpHweLC7dckefDk7g-5">
          <mxGeometry width="50" height="50" relative="1" as="geometry">
            <mxPoint x="490" y="600" as="sourcePoint" />
            <mxPoint x="540" y="550" as="targetPoint" />
            <Array as="points">
              <mxPoint x="620" y="243" />
            </Array>
          </mxGeometry>
        </mxCell>
        <mxCell id="sZKUpHweLC7dckefDk7g-37" value="" style="shape=image;imageAspect=0;aspect=fixed;verticalLabelPosition=bottom;verticalAlign=top;image=data:image/png,iVBORw0KGgoAAAANSUhEUgAAAgAAAAIACAMAAADDpiTIAAAAA3NCSVQICAjb4U/gAAAACXBIWXMAAA58AAAOfAFPrruzAAAAGXRFWHRTb2Z0d2FyZQB3d3cuaW5rc2NhcGUub3Jnm+48GgAAAwBQTFRF////AAAAAAAAAAAAAAAAAAAAAAAAAAAAAAAAAAAAAAAAAAAAAAAAAAAAAAAAAAAAAAAAAAAAAAAAAAAAAAAAAAAAAAAAAAAAAAAAAAAAAAAAAAAAAAAAAAAAAAAAAAAAAAAAAAAAAAAAAAAAAAAAAAAAAAAAAAAAAAAAAAAAAAAAAAAAAAAAAAAAAAAAAAAAAAAAAAAAAAAAAAAAAAAAAAAAAAAAAAAAAAAAAAAAAAAAAAAAAAAAAAAAAAAAAAAAAAAAAAAAAAAAAAAAAAAAAAAAAAAAAAAAAAAAAAAAAAAAAAAAAAAAAAAAAAAAAAAAAAAAAAAAAAAAAAAAAAAAAAAAAAAAAAAAAAAAAAAAAAAAAAAAAAAAAAAAAAAAAAAAAAAAAAAAAAAAAAAAAAAAAAAAAAAAAAAAAAAAAAAAAAAAAAAAAAAAAAAAAAAAAAAAAAAAAAAAAAAAAAAAAAAAAAAAAAAAAAAAAAAAAAAAAAAAAAAAAAAAAAAAAAAAAAAAAAAAAAAAAAAAAAAAAAAAAAAAAAAAAAAAAAAAAAAAAAAAAAAAAAAAAAAAAAAAAAAAAAAAAAAAAAAAAAAAAAAAAAAAAAAAAAAAAAAAAAAAAAAAAAAAAAAAAAAAAAAAAAAAAAAAAAAAAAAAAAAAAAAAAAAAAAAAAAAAAAAAAAAAAAAAAAAAAAAAAAAAAAAAAAAAAAAAAAAAAAAAAAAAAAAAAAAAAAAAAAAAAAAAAAAAAAAAAAAAAAAAAAAAAAAAAAAAAAAAAAAAAAAAAAAAAAAAAAAAAAAAAAAAAAAAAAAAAAAAAAAAAAAAAAAAAAAAAAAAAAAAAAAAAAAAAAAAAAAAAAAAAAAAAAAAAAAAAAAAAAAAAAAAAAAAAAAAAAAAAAAAAAAAAAAAAAAAAAAAAAAAAAAAAAAAAAAAAAAAAAAAAAAAAAAAAAAAAAAAAAAAAAAAAAAAAAAAAAAAAAAAAAAAAAAAAAAAAAAAAAAAAAAAAAAAAAAAAAAAAAAAAAAAAAAACyO34QAAAP90Uk5TAAECAwQFBgcICQoLDA0ODxAREhMUFRYXGBkaGxwdHh8gISIjJCUmJygpKissLS4vMDEyMzQ1Njc4OTo7PD0+P0BBQkNERUZHSElKS0xNTk9QUVJTVFVWV1hZWltcXV5fYGFiY2RlZmdoaWprbG1ub3BxcnN0dXZ3eHl6e3x9fn+AgYKDhIWGh4iJiouMjY6PkJGSk5SVlpeYmZqbnJ2en6ChoqOkpaanqKmqq6ytrq+wsbKztLW2t7i5uru8vb6/wMHCw8TFxsfIycrLzM3Oz9DR0tPU1dbX2Nna29zd3t/g4eLj5OXm5+jp6uvs7e7v8PHy8/T19vf4+fr7/P3+6wjZNQAAGC1JREFUGBntwQmcjfX+B/DPOTNzmDGWGclYxpJJg7lCRNmuNG0TQki63SmFJJckW7Z0pRA32tDm0qZrCcU0de1bRNEUsjMZ+xhmn/P5d7v33yvFzFl+v+c8z3O+7zeEEEIIIYQQQgghhBBCCCGEEEIIIYQQQgghhBBCCCGEEEIIIYQQQgghhBBCCCGEEEIIIYQQQgghhBBCCCGEEEIIIYQQQgghhBBCCCGEEMIXkVVq1U1o0qJtYlLnHg8+0n/Q08888/Sg/o882KNzUmLbFk0S6taqEglhJ+VqNbm1+2Ojpr69ZO13P+XRA3k/fbd2ydtTRz3W/dYmtcpBWFKlpl0GT1+4LaOAfirI2LZw+uAuTStBWEBY7bYPjp6d8kM2lcv+IWX26Afb1g6DMKMyzZKnfHaoiNoVHfpsSnKzMhBmEd7kL5OWHXDTUO4Dyyb9pUk4RCCFNbz/74v3FjFgivYu/vv9DcMgjFej+0sbcmgKORte6l4DwjBl2g5blE6TSV80rG0ZCM0c9ZJf31FIkyrc8XpyPQeEHmGtx608S9M7u3Jc6zAIxeoNXJpFy8haOrAehCqVe719lJZz9O1elSH8FX77lG/ctCj3N1NuD4fwleOG4V/k0uJyvxh+gwPCayHtZh6jTRyb2S4EwguuO+ecpK2cnHOnC8Ij4Z3nnaMNnZvXORyiBGV7LrhA27qwoGdZiCuKfmhpLm0ud+lD0RCXUarb8gIGhYLl3UpBXKrZK2cYRM680gziVzFP7WLQ2fVUDMTPXPcuK2RQKlx2rwvB7oYZpxnETs+4AUGs8pCdDHo7h1RGcGq9oIDiZwULWiPolPrrNopfbftrKQSTmPEZFJfIGB+DYNH0n3kUf5D3z6YIAqHd11NcwfruobC3isOPUBTjyPCKsK+EWdkUJcielQB7umEJhUeW3AD7ab6MwmPLmsNebl5B4ZUVN8M+2qRSeC21Deyh3b8pfPLvdrC+xLUUPlubCGu7YyOFXzbeAeu6bQuF37bcBmtKWEGhxIoEWE/M7EIKRQpnx8BaIsZkUSiUNSYC1uFMPkqh2NFkJyyi/Q4KDXa0hxXUX06hyfL6MLurXy+k0Kbw9athZuEjz1NodX5kOEzrjv0U2u2/A+YU8wGFIT6Igfk4HztHYZBzjzlhMg03UhhoY0OYScSLBRSGKngxAqaRdJDCcAeTYA5VF9Aico7tXL3ozRlTnx8/8qmB/R7u1a3Tne3b39mpW6+H+w18auS456fOeHPR6p3HcmgRC6oi8JwDMmlm2T+kzJn09CNd/vynauHwUHi1P7Xt3Hvo87NX/pBNM8sc4ESANdpMczq1bdH0wV2bXg0/Vbqhy6BpC7eepDltboRACnuukGaTtfmtIXfWKwPFIuLvGPzmpvM0m8LnwhAw9bbRTLK3zR2WVMsBjRw17xr67taLNJNt9RAYjoHZNIt9H4zqFOeEQZx1Oo5470eaRfZABwKgWgpNITP1uQ6VEABXJU1IOUdTSKkGw913hgFXtHN27wQnAshR/6E3vilkwJ25D8aqMJ8Bdn7pyFvKwhQi/zx8yTkG2PwKMFD7IwykgvXjWoXCVEJuGrO2gIF0pD2MUnqam4Gze2ancjClsh1e/p6B455WGoZo/B0D5eQHvWvA1Ko/9F4GA+W7xtDPOSKfgbF1ZBMHLMDRaPgWBkb+CCc0i1nFQHCvf7IWLCT2b6uLGAirYqBV63Qar/CL/lVgOZX7rsyn8dJbQ6MnC2i0vOW9r4JFRT24JIdGK3gSupT9mAbLXdirPCwtsvuHF2mwj8tCiwY/0FibH4uCDZTtvY7G+qEBNLj/Ao2U/mJ92Ma1fz9CI124H6q5ZtJAuR/dFQJbcSa+l0MDzXRBqeobaZyvHo+GDZXvu5HG2VgdCt16kkY5PrkBbCt+UjqNcvJWqOIYVUSDbH3ABVsL67mJBika5YASUUtpjIKPWiIINH8vn8ZYGgUF4nbTEKcnxSJIVH3uJA2xOw5+a3WKRtjVJxxBpHTvb2iEU63gp1651M+99FYEnXaLi6hfbi/4ZQz1y54Rh6B0zbSL1G8MfOeaS+0uTo1B0Kr0Qha1m+uCj6JXU7cLk69GUKs48Tx1Wx0Nn8TtpmZZkyoh6EVPOEfNdsfBB61OUa/zEytC/KzC2LPU61QreK1XLrXKnBAN8T/lnzlNrXJ7wUtjqNW58VEQv1F2xClqNQbecM2lTnlToiB+J3JCNnWa64LHKqymTh/WhriM6u8UUaPVFeChStup0foWEFfQ+AtqtL0SPFI1jfr8eC9EMZLSqE9aVXig9j5qc2awC6JYIf0yqM2+2ihR/FHqkvdSFESJyv49m7ocjUcJGp2gLgvqQHgkdq6bmpxohGK1OEtN0lpDeKzZ19TkbAsUo10W9ch5xgXhhZAnL1CPrHa4oqQc6pEaB+GlGp9Qj5wkXEH3fGpx4gEIH3Q5Si3yu+OyHiqkDu43oyF8Um5GEXUofAiX8YSbOqS1gfBZs+3Uwf0E/mAEdcgd7YLwQ8iQC9RhBH6nH3X44loIP9VcSh364hJt86ledn8IBf6aSfXyW+M3ap2kel9dB6FErdVULyMWvyrzDZUrnBAKc3NFRsfUiIurERMd6YK5OZ/Oo3LbwvH/ZlG5H2+CuUTWanJrt74jJs9ZuOrbgz+dzsrjJfKyTv908NtVC+dMHtG3261NakXCXK7fSeVewf9cV0jVZkfCJK5udu+Ql5fsOEsvnd2x5OUh9za7GiZRaqqbihXUwX99RMVOdETgVWzb/9WU3Tn0U87ulFf7t62IwGt3mIrNwy+auKnW0soIqPI39/lH6nEqdTz1H31uLo+AKj+PahUl4D9WUKkLfRA4VyU9+9kRanPks2eTrkLgdD9DpRbjZ3Wo1NfXIjBczZ6Y9yMN8OO8J5q5EBjVVlGpGgAGUqU5pREA1XtM25BLA+VumNajOgIgdDJV6g8gherkPAzDle3w8vcMiO9f7lAWhuuSSXWWA5F5VGZfYxgr9Oax6woYQAVrx94cCmPV3UllssNxD5X5pAKMdO3jizNpApmLH78WRoqYR2XuxiQqUjjCAeM0HL+LJrJrfEMYqH8eFZmId6lGxi0wTLNJe2k6eyc1g2GaH6Ya72AllVhfDcZwtp5+mCZ1eHprJ4xxVQqVWIFvqcL0MBii5Ws/0dR+eq0lDOGc4KYCO3CC/svuASPEjtpDC9gzKhZGSMqk/zKQR78dvxH6hfdMKaJFFKX0DId+fzpEv+XhKP31XS1o1+KNc7SUc2+0gHYxX9Ff6fiKfkotD80qD/+BFvTD8MrQLGIR/bQNS+mfN8OgV5N382hRee82gV7OqfTPcsyiP9wjoVVI1zW0tDVdQ6DVY4X0xxyMoR9ye0CnqKEHaXkHh0ZBpzvO0w/PoiV9d/JmaBT/6kXawsVX46FRw8P03S0IOU1f7a4DfdqtcNM23CvaQZ8qW+mrzDBgHn20KhraJK6lzaxNhDYRi+mjjwD0pG8+cEGXuzbShjbeBV2cr9A3DwKIyqMv3nRCk45f0aa+6ghdnqcvCirhZzPog384oIWj63ba2PauDugxkj6Yjf+IyabXnoMWju47aXM7uzugxRNueis3Fr94gd4aBi1abWEQ2NIKWjxURC9Nw39VzKRX3P2hQ51/MUj8qw506J5Pr2Rdjf95mt4ofBAaRL2Ux6CR91IUNEjKoTdG4f85FtJzeV2hXtig0wwqpweFQb12WfTcUid+FbmTnsq+E+p13sugs7cz1Gtxlp76rhx+45rT9Mz5tlCu8RoGpTWNoVyjE/TMmThc4tZ8euL0jVCtzNRCBqnCqWWgWvwReiI/Eb/T5gRLtqsOVOtwiEHsUAeoVmUjS3aiDf6g5g6WZFEkFKv6MYPcx1WhWKl3WJIdNXEZEQtYLPc4B9RyDshk0Msc4IRigwtZrAVlcFmO/sd5ZTvvgGLXb6b42ebroVjbbbyyjP4OXEnE8DO8vB97OaFWxOQCil8UTI6AWo7uu3l5mc+UQXEqPHeaf7SvbygUa7mP4lf7WkKx0EcP8I/OT66IkoS0nrSLv1G4ZlgDqBY2sYjiN4omhkG1xmO2uvkbh2be7oJnat03+IW5KZuXzZnweKcoqNdgO8XvbG8A9ar+ZeSMBet2b/nkjfH9rodZOAbnUPxBzmAHgkLsFxSX9UUsgkCvcxRXcK4X7C76Q4pifBgNW2t+hKJYR5rDxh7PoyhB3uOwq4h5FB6YFwFbqruTwiM768KGumRSeCizC+wmdDKFFyaHwlZiVlF4ZVUMbOSmdJpQ7skDOzes/2b/iWyaUPpNsI3uOTSD7G8Xvj557JC+93e8pVm92Aqh+FVI+WrxTf/coeejT4558bWPtmfRDHK6wyZGuBlYObsWvfhou+oOeCqm9cMTF+y4wMByj4AdhM5hwOSmLZnS95YaDvimSpvekz7+5iIDZk4oLK/85wyIgs2TO9R0QgFHtdsmrM5lQHxeHhZXcxeNl7t6QmIklCrV5pmUCzTerpqwtGbHabCslGfalIIWoc2HLj1Lgx1vBgvrfJFGOvPJUzeGQivn9QM/zqCRLnaGZQ0uomEKUwY0dMAY8X2W5NEwRYNhUc/SMBueqAxDRT3yRRGN8iws6SUaZOeI2giAKoM20yAvwXqcs2iI/RMTEDB1nvmOhpjlhMWEzqcBjr98EwLs+kkHaYD5obAU1yJqd+7txBCYgKPlzAxqt8gFC4lYSc3cS7uUgmmE3D6/gJqtjIBllF1DvfLeqgeTqTH9AvVaUxYWEb2FWp2fXA0mFD36BLXaEg1LiNxBnX4aXgEmFd5/H3XaEQkLcCymRrsfLQUTC+m+jRotdMD8JlCfzV2cMLv2KdRnHEyvG7X5tC0sofH7hdTE3Rkm1+Ai9Sj4559gGbVnZlOPrOtgbsuphfvNGrCUqybnU4vFMLVW1GLzjbCc61ZSi+Yws7XUIONhB6zongPUIBUmdhfVK5heHhZVemw21bsF5rWeyn3ZABZW819U7t8wravdVOxwN1hc4vdUrLAizCqZauVOiIDlhQ05T7V6wawWUKkl18AWYua6qdJ7MKmwTCq0+w7Yxs1fU6EzITCnllQn62kXbMTZ7zTVaQFz6klltsbBZqp+SWV6wJwGU5VpLtiOc3QhFRkEc3qRapy6G7bU+gjVmARzmkslVlWDTUUvoRLvwJxWUoHCsU7Y1xO5VOAzmNPH9N/RNrC1xrvpv4Uwpxn02ycVYXORc+m3V2FOo+invL8hCDyYRT+Nhjn1pn/2NEFQqLud/nkU5nQX/TKvLIJEqZfpl7thTpXd9N2FZASRTqfph1iY1Bb67EgDBJWa39NnO2BWY+irtFgEmYqb6KvnYFY30EcbohF0IpbTRy1gVo50+mRpOIJQ6Dv0yQknTGs8ffFWKIKS4wX64gWYV7lT9N5EBK1BbnotMxomNpTecg9EELs/n94aDTMLT6d38nogMFzRNerfeEvH++/veMuN9WtEuxAYiVn0zslImFo/euV8exipVL2OQ15L2ZJ2+Ew+fyf/zOG0LStfGZR0bSiM1PQEvTIY5uZYTC8cbwJjuOI7DH7184NF9EDB3uXTH0+s5YQx4vbTCytDYHJl0+ixH+vAAPF95u8rotdyd81+oAYMELOdHtsTBdO79iw9tK0yNHM0HLAgg3448O7DcdCt3Jf0UGY9WMCdRfRIalnoFNJ0yJIzVODY+4/Vd0CnUh/RI0VJsIReOfTAHBf0iXrk0/NU6OTH95eBPs4X6IGcXrCIZsdYkoIB0CbiviV5VO7i+x1c0KZnNktyrBkso8omFu/kn6FJWNL8C9TkzKx2TmjS5DCLt6kKLKTUG0UsxoZa0MLR9vVT1OrYS02hx9UrWYyiN0rBWhKW8Eq+6Qgtrp9yhAbYM/5aaJG4lVeyrCGsp8WXvJzd9zmgQ2IqjeJecjN0cHTfw8tZ3xrWdOOE7bzUgZl3hECDkB5f01Br73ZAg9COs47xUt9PbgMLq9bn/bV7L5DMO7Rp0dMNoEV4/3003K4Hw6CDo8mYFd+e4s+Kftq2aOA1sIPI2tHQJuqZDAbE4UFloEupWo2rhUKUrPpLWQyY089Wggikmu/kM6CyZ1aGCJTwcdkMuMzBoRAB0fUgTWFXOwjj1U+laXxYHcJY5acV0EQujHBBGMfxcAZNZs+dEEZpvoUmtKQ2hBHKv+WmKeWMDYXQrvkBmtbGWhB6OZ4uoImd7QqhU+WVNLlXS0Nok3icpvdNPIQeoc+7aQEXkiF0qLmBFjEvEkK5rmdpGXsaQ6hV+jVaSd5ACJUqrKbFzA6BUKbqt7ScRaUhFIk/RAtaUwFCiRanaEnfVoFQIOkiLepAXQi/JRfQsk40hfDTcFpZViKEPxz/oLXl94TwnesDWp37bxC+Cl1BGxgL4aMZtIVeED7pTXvIaQrhg5vyaBNHYyC8FvMTbWNjGIS33qCNDIDwUlwBbeR4GQjvvEdbGQnhlevdtJWzURDeWECbGQ/hhdIXaTNpEF64i7ZzDYTnXqHtPAHhuUO0nRUQHruOmhXt35S6eP4bU8cPHTp+6hvzF6du2l9EvXJLQ3jqdmqTvmrWU53qufAHrnqdnpq1Kp3axEF4Kpk6FH09vctVKMFVXaZ/XUQdWkN4ajhVK9z0YlIFeKhC0oubCqlaNwhPTadS7jX9K8FLlfqvcVOpgRCeep8KbXsqFj6JfWobFZoI4am3qMrRMXXhh7pjjlKVcRCemkg10h5ywU+uh9KoRj8ITz1BFTZ0ckABR6cNVOEeCE91o9/cy1pDmdbL3PRbcwhPtaK/1jWGUo3X0V81ITxVoYB+SX8Ayj2QTr+cDYHw2Gr6IX9yWWhQdnI+/fA+hOeG0ncp8dAkPoW+6wXhufr01el7odG9p+mjwooQXthP36yLhVax6+ibdRDeGE1fuCeGQrPQiW764hEIb0SeoPeOJ8IAicfpvT2hEF55kl5LjYEhYlLptfsgvFP6CL30rBMGcT5LL+1wQHipD71S1BcG6ltEr9wF4S3HUnohtwsM1SWXXpgN4b1yP9Bj59rCYG3P0WPrXRA+uC6THkpvCMM1TKeHjlSG8MndbnpkT20EQO099EhOUwgf9c6nB9ZUQkBUWkMPnE+C8FmrDJbolTAESNjrLNG+BhB+iN3K4uX1RgD1zWfxUqMh/BL+DotzqAUCqvVRFqNoWiiEv25M5ZVk/K0UAix82BleydIECBXab+blnB1VBiZQYVI2L2dtSwhVEmce4KUuLu0XBZOoOnRVAS918JX2EEo1ePrz3Zn8j/wjW165qzRMpcJ983ad5i9y9n85LAFCi4hrbkqo6IBJuWrc2Da+AoQQQgghhBBCCCGEEEIIIYQQQgRUdMJtySNHJt+WEA0RZGoOTNmfy1/l7k8ZWBMiSDQat52XsX1cIwjbixx7kFd0cGwkhJ2FDchgsTIGhEHYlaPHjyzRjz0cELbUcis9srUlhA31K6CHCvpB2E3oTHphZiiErUSn0iup0RA2Um8vvbS3HoRtxJ+l187GQ9hE1B76YE8UhC2Efk6ffB4KYQcz6KMZEDbQlz7rC2F5N+XTZ/k3QVjdZvphM4TFdaNfukFYWthe+mVvGISVPU4/PQ5hYZEZ9FNGJIR1jaXfxkJY10H67SCEZTWiAo0grGocFRgHYVXbqcB2CIuqSSVqQljTQCoxEMKaUqhECoQ17acS+yGsKZdK5EJYUjQViYawogQqkgBhRbdRkdsgrCiZiiRDWNFIKjISwopGUpGREFaUTEWSIazoNipyG4QVJVCRBAgriqYi0RCWlEMlciCsaT+V2A9hTSuoxAoIaxpAJQZAWFMslYiFsKhtVGAbhFWNpgKjIayqIRVoCGFZ++m3/RDWNYp+GwVhXRHp9FN6BISF9aGf+kBYWcj39Mv3IRCWdg/9cg+Exa2nH9ZDWF3TPPosrymE5SXTZ8kQNjCFPpoCYQfOT+mTT50QtlAujT5IKwdhE3Gn6LVTcRC2EZdGL6XFQdhIuU/plU/LQdiKcwq9MMUJYTfJefRQXjKEDTVdR4+sawphT53SWKK0ThC2FfLIMRbr2CMhEHYWPmw3r2j3sHAI24sfvtHNP3BvHB4PESRi+nySdo6/Opf2SZ8YiCATEdfmviefvK9NXASEEEIIIYQQQgghhBBCCCGEEEIIIYQQQgghhBBCCCGEEEIIIYQQQgghhBBCCCGEEEIIIYQQQgghhBBCCCGEEEIIIYQQQgghhBBCCCGEEMJf/wc940SxAkgudwAAAABJRU5ErkJggg==;rotation=35;" vertex="1" parent="1">
          <mxGeometry x="800" y="170" width="60" height="60" as="geometry" />
        </mxCell>
        <mxCell id="sZKUpHweLC7dckefDk7g-41" value="Control System" style="shape=image;imageAspect=0;aspect=fixed;verticalLabelPosition=bottom;verticalAlign=top;image=data:image/png,iVBORw0KGgoAAAANSUhEUgAAAgAAAAIACAYAAAD0eNT6AAAABHNCSVQICAgIfAhkiAAAAAlwSFlzAAAOxAAADsQBlSsOGwAAABl0RVh0U29mdHdhcmUAd3d3Lmlua3NjYXBlLm9yZ5vuPBoAAA4KSURBVHic7d1ZrK1nQcfhX0/LwbZSEBDEUoZKWoYC1iIyGwQBUSMExcaBoQIJF0a9IcZEjTFGTTRqQohBBjVGLzCKGoPRKpFRQ6EahQrG0iIEBWVoKW2hnO3FagLBtmfa33rX+t7nSc5tz391n6zvt79hrQIAAAAAAAAAAAAAAAAAAAAAAAAAAAAAAAAAAAAAAAAAAAAAAAAAAAAAAAAAAAAAAAAAAAAAAAAAAAAAAAAAAAAAAAAAAAAAAAAAAAAAAAAAAAAAAAAAAAAAAAAAAAAAAAAAAAAAAAAAAAAAAAAAAAAAAAAAAAAAAAAAAAAAAAAAAAAAAAAAAAAAAAAAAAAAAAAAAAAAAAAAAAAAAAAAAAAAAAAAAAAAAAAAAAAAAAAAAAAAAAAAAAAAAAAAAAAAAAAAAAAAAAAAAAAAAAAAAAAAAAAAAAAAAAAAAAAAAAAAAAAAAAAAAAAAAAAA4A6cMXoAw31t9bTqydXDq4dU96rOq84cNws4JF+qbqg+W11XfbB6Z/X31Y3jZjGaAJjTkeq51RXVd1dHx84BBvhC9ZbqjdVfVMfGzmHbBMB8XlD9QvWo0UOAnXFN9fPVm0YPYXsEwDwuqH6nevboIcDOurJ6WXX96CEsTwDM4bnV71f3GT0E2Hmfrl7c5rIAK+Ymr/V7UfVHbW72Azies6sXVp+srhq8hQUJgHV7WfX6/JyBk3OkzQ3C/1O9Z/AWFuISwHp9T/XmHPyBU3es+v7qT0cP4fAJgHW6oLo61/yB03dj9bjqQ6OHcLiOjB7AIt6Ygz9wOO5RvS6/MK6OAFify6tnjB4BrMpTqx8dPYLDpejW5czqA9VFo4cAq3NtdXF12+ghHA5nANbl+Tn4A8u4sPrB0SM4PAJgXa4YPQBYtZeOHsDhcQlgPe5T/Vd11ughwGodq85v817DnnMGYD2enoM/sKwj1XeMHsHhEADr8ZTRA4ApPHX0AA6HAFiPR4weAEzh4aMHcDgEwHo8dPQAYArfNHoAh0MArMe9Rg8ApnDP0QM4HAJgPc4ZPQCYgq8WXwl3ja/HNh7p/FL1iermLfxdwMk5p7pfy/9i5/Fx2DE3VQcL/flc9arqvlt7NcCpuF/1s20ifan3g2NbezXACVkqAG6oLtvi6wBO31NaLgIEAOyYpQLgldt8EcCh+ekEAExhiQC4sfqabb4I4NDcu/piAoA74SkA7so11S2jRwCn5FPVR0aPYHcJAO7KTaMHAKflxtED2F0CAAAmJAAAYEICAAAmJAAAYEICAAAmJAAAYEICAAAmJAAAYEICAAAmJAAAYEICAAAmJAAAYEICAAAmJAAAYEICAAAmJAAAYEICAGC9DkYPYHcJAACYkAAAgAkJAACYkAAAgAkJAACYkAAAgAkJAACYkAAAgAkJAACYkAAAgAkJAACYkAAAgAkJAACYkAAAgAkJAACYkAAAWK+D0QPYXQIAACYkAABgQgIAACYkAABgQgIAACYkAABgQgIAACYkAABgQgIAACYkAABgQgIAACYkAABgQgIAACYkAABgQgIAACYkAADW62D0AHaXAACACQkAAJiQAACACQkAAJiQAACACQkAAJiQAACACQkAAJiQAACACQkAAJiQAACACQkAAJiQAACACQkAAJiQAACACQkAAJiQAABYr4PRA9hdAgAAJiQAAGBCAgAAJiQAAGBCAgAAJiQAAGBCAgAAJiQAAGBCAgAAJiQAAGBCAgAAJiQAAGBCAgAAJiQAAGBCAgAAJiQAANbrYPQAdpcAAIAJCQAAmJAAAIAJCQAAmJAAAIAJCQAAmJAAAIAJCQAAmJAAAIAJCQAAmJAAAIAJCQAAmJAAAIAJCQAAmJAAAIAJCQCA9ToYPYDdJQAAYEICAAAmJAAAYEICAAAmJAAAYEICAAAmJAAAYEICAAAmJAAAYEICAAAmJAAAYEICAAAmJAAAYEICAAAmJAAAYEICAAAmJAAA1utg9AB2lwAAgAkJAACYkAAAgAkJAACYkAAAgAkJAACYkAAAgAkJAACYkAAAgAkJAACYkAAAgAkJAACYkAAAgAkJAACYkAAAgAkJAID1Ohg9gN0lAABgQgIAACYkAABgQgIAACYkAABgQgIAACYkAABgQgIAACYkAABgQgIAACYkAABgQgIAACYkAABgQgIAACYkALgr/n3Afjtj9AB2lzd47soDRg8ATss3jh4ALO+m6mCBPxdt80UAh+bRLfOecGybLwI4vqUC4M05jQj75ozqLxMAMIWlAuCgek11dHsvBTgNd69e23LvBwJgJfxmtx43Vecs+N//cPV71dXV5xf8e4BTc051afWS6iEL/j0HuX9sFQTAeiwdAAAlAFbDDxEAJiQAAGBCAgAAJiQAAGBCAgAAJiQAAGBCAgAAJiQAAGBCAgAAJiQAAGBCAgAAJiQAAGBCAgAAJiQAAGBCAgAAJiQAAGBCAgAAJiQAAGBCAgAAJnTW6AEcmkuqM0aPAAAAAAAAAAAAAAAAAAAAAAAAAOA4fHLc/vqN6vzRI4Dpfaz6qdEjOHkCYD+9oPrj0SMAbveC6k9Gj+DkCID9c7R6f/Ww0UMAbvfh6pHVLaOHcOLOHD2Ak/aq6gdGjwD4Cl9X3VS9Y/QQTpwzAPvl/tWHqvNGDwH4Kp+rLqo+PnoIJ8YZgP3y6urbRo8AuANHq3tXfzZ6CCfGGYD9cWl1VXVk9BCAO3GsekL1ntFDOD4Hk/3xW/l5AbvtSJv3Kr9c7gEHlP1wefXU0SMATsATqxeOHsHxqbTdd3Z1TfXg0UMATtBHq4urz48ewp1zE+Du+5nqeaNHAJyE86pbq7eNHsKdcwZgt51ffbA6d/QQgJN0c/Xw6iOjh3DH3AOw2341B39gP51d/dLoEdw5ZwB21xOqd+VnBOyvg+pp+YTAneTgspvOqN6dD/0B9t97q8e3+YwAdohLALvpR3LwB9bhsuqHRo/g/3MGYPec0+axvweNHgJwSD7W5rHAm0YP4cs8Brh7fq763tEjAA7RedWXqreOHsKXOQOwWy6o/q3NWQCANbm5emR13eAd3M49ALvl13LwB9bp7OpXRo/gy5wB2B1PavOojJ8JsGbfnk8I3AkONrvhSPUP1beOHgKwsKurx+WxwOFcAtgNL83BH5jDpdVLRo/AGYBdcI82n/f/gNFDALbkE9VF1WdHD5mZxwDH+8XqOaNHAGzRuW1+Ab1y9JCZOQMw1oXVB6q7jx4CsGVfqC6p/n30kFm5B2CsX8/BH5jT0TbfeMogzgCM8/Tq70aPABjsWdXfjB4xIwEwxpnV+6rHjB4CMNj7q2+ubhs9ZDYuAYzx8hz8AaoeVf3Y6BEzcgZg+86rPlTdf/QQgB3xyTaPBX5m9JCZeAxw+365euboEQA75Nw2NwX+9eghM3EGYLseVv1r7vwH+GpfrB7d5oPR2AL3AGzXb+bgD3BH7tbmG1HZEmcAtucZ+dQrgOP5ruqvRo+YgQDYjrPafAPWJaOHAOy4a6rHtrkkwIJcAtiOV+TgD3AiHtHmUWkW5gzA8u5e/Ud1/ughAHvio21umr519JA1cwZgeVfk4A9wMh5YvWT0iLUTAMt72egBAHvIpwMuzCWAZV3Y5vQ/nI6PV++tbh495ASdU11WfcPoIey1gzbvodcN3rFaZ40esHLPGT2Avfbp6pXVm6pjg7ecrCPV5dVrqnsO3sJ+OqPNe+hvjx6yVgJgWZeNHsDeurV6dvWe0UNO0bHqD9ucAXt7mw95gZP1LaMHrJl7AJb12NED2Fuva38P/l/pH6vXjx7B3vKtqQsSAMv6+tED2FtvGj3gEK3ptbBd9xs9YM0EwLJc++RUXTt6wCFyIyynynvoggQA7KZzRw84RGt6LWyXJ9UWJACW9enRA9hbTxo94BA9efQA9tanRg9YMwGwrE+MHsDe+onWcef80TavBU7Ff48esGYCYFn/NHoAe+sxbZ5/PnP0kNNwVvXa6lGjh7C3/nn0gDXzOQDLeu/oAey1K6rHVa9u80jgDWPnnLDzqsdXP55vweT0XDV6wJq5wWJZF1TX5/8zwMk6Vj2o+tjoIWvlEsCy/rN61+gRAHvoHTn4L0oALO8NowcA7CHvnQtzanp5d6s+WD109BCAPXFtdXF12+gha7bPdxjvi2PVZ6rnjR4CsCd+srp69Ii1cwZge96SrwcGOJ4rq2dVB6OHrJ0A2J4HV++r7j16CMCO+t/q0jY3ULMwNwFuz/VtLgPcMnoIwA66pfq+HPy3RgBs19urH65uHT0EYIfcUl1evXP0kJm4BDDGE6s/r+47egjAYJ+qnl+9bfSQ2TgDMMa723xU6ltHDwEY6G+ry3LwH0IAjPPh6hnVK6qPDN4CsE3XVy+vvrO6buyUebkEsBuOVi+qXtzme+CFGbA2x9pc4//d6g+qLwxdgwDYQQ+sntnmUZjHtHls8J5tvmENYB/cUH22zWN9/9LmEegr89n+AAAAAAAAAAAAAAAAAAAAAAAAAAAAAAAAAAAAAAAAAAAAAAAAAAAAAAAAAAAAAAAAAAAAAAAAAAAAAAAAAAAAAAAAAAAAAAAAAAAAAAAAAAAAAAAAAAAAAAAAAAAAAAAAAAAAAAAAAAAAAAAAAAAAAAAAAAAAAAAAAAAAAAAAAAAAAAAAAAAAAAAAAAAAAAAAAAAAAAAAAAAAAAAAAAAAAAAAAAAAAAAAAAAAAAAAAAAAAAAAAAAAAAAAAAAAAAAAAAAAAAAAAAAAAAAAAAAAAAAAAAAAAAAAAAAAAAAAAAAAAAAAAAAAAAAAAADsvv8D3e44diGXAOcAAAAASUVORK5CYII=;" vertex="1" parent="1">
          <mxGeometry x="860" y="310" width="120" height="120" as="geometry" />
        </mxCell>
        <mxCell id="sZKUpHweLC7dckefDk7g-42" value="" style="shape=image;imageAspect=0;aspect=fixed;verticalLabelPosition=bottom;verticalAlign=top;image=data:image/png,iVBORw0KGgoAAAANSUhEUgAAAgAAAAIACAMAAADDpiTIAAAAA3NCSVQICAjb4U/gAAAACXBIWXMAAA58AAAOfAFPrruzAAAAGXRFWHRTb2Z0d2FyZQB3d3cuaW5rc2NhcGUub3Jnm+48GgAAAwBQTFRF////AAAAAAAAAAAAAAAAAAAAAAAAAAAAAAAAAAAAAAAAAAAAAAAAAAAAAAAAAAAAAAAAAAAAAAAAAAAAAAAAAAAAAAAAAAAAAAAAAAAAAAAAAAAAAAAAAAAAAAAAAAAAAAAAAAAAAAAAAAAAAAAAAAAAAAAAAAAAAAAAAAAAAAAAAAAAAAAAAAAAAAAAAAAAAAAAAAAAAAAAAAAAAAAAAAAAAAAAAAAAAAAAAAAAAAAAAAAAAAAAAAAAAAAAAAAAAAAAAAAAAAAAAAAAAAAAAAAAAAAAAAAAAAAAAAAAAAAAAAAAAAAAAAAAAAAAAAAAAAAAAAAAAAAAAAAAAAAAAAAAAAAAAAAAAAAAAAAAAAAAAAAAAAAAAAAAAAAAAAAAAAAAAAAAAAAAAAAAAAAAAAAAAAAAAAAAAAAAAAAAAAAAAAAAAAAAAAAAAAAAAAAAAAAAAAAAAAAAAAAAAAAAAAAAAAAAAAAAAAAAAAAAAAAAAAAAAAAAAAAAAAAAAAAAAAAAAAAAAAAAAAAAAAAAAAAAAAAAAAAAAAAAAAAAAAAAAAAAAAAAAAAAAAAAAAAAAAAAAAAAAAAAAAAAAAAAAAAAAAAAAAAAAAAAAAAAAAAAAAAAAAAAAAAAAAAAAAAAAAAAAAAAAAAAAAAAAAAAAAAAAAAAAAAAAAAAAAAAAAAAAAAAAAAAAAAAAAAAAAAAAAAAAAAAAAAAAAAAAAAAAAAAAAAAAAAAAAAAAAAAAAAAAAAAAAAAAAAAAAAAAAAAAAAAAAAAAAAAAAAAAAAAAAAAAAAAAAAAAAAAAAAAAAAAAAAAAAAAAAAAAAAAAAAAAAAAAAAAAAAAAAAAAAAAAAAAAAAAAAAAAAAAAAAAAAAAAAAAAAAAAAAAAAAAAAAAAAAAAAAAAAAAAAAAAAAAAAAAAAAAAAAAAAAAAAAAAAAAAAAAAAAAAAAAAAAAAAAAAAAAAAAAAAAAAAAAAAAAAAAAAAAAAAAAAAAAAAAAAAAAAAAAAAAAAAAAAAAAAAAACyO34QAAAP90Uk5TAAECAwQFBgcICQoLDA0ODxAREhMUFRYXGBkaGxwdHh8gISIjJCUmJygpKissLS4vMDEyMzQ1Njc4OTo7PD0+P0BBQkNERUZHSElKS0xNTk9QUVJTVFVWV1hZWltcXV5fYGFiY2RlZmdoaWprbG1ub3BxcnN0dXZ3eHl6e3x9fn+AgYKDhIWGh4iJiouMjY6PkJGSk5SVlpeYmZqbnJ2en6ChoqOkpaanqKmqq6ytrq+wsbKztLW2t7i5uru8vb6/wMHCw8TFxsfIycrLzM3Oz9DR0tPU1dbX2Nna29zd3t/g4eLj5OXm5+jp6uvs7e7v8PHy8/T19vf4+fr7/P3+6wjZNQAAGC1JREFUGBntwQmcjfX+B/DPOTNzmDGWGclYxpJJg7lCRNmuNG0TQki63SmFJJckW7Z0pRA32tDm0qZrCcU0de1bRNEUsjMZ+xhmn/P5d7v33yvFzFl+v+c8z3O+7zeEEEIIIYQQQgghhBBCCCGEEEIIIYQQQgghhBBCCCGEEEIIIYQQQgghhBBCCCGEEEIIIYQQQgghhBBCCCGEEEIIIYQQQgghhBBCCCGEEMIXkVVq1U1o0qJtYlLnHg8+0n/Q08888/Sg/o882KNzUmLbFk0S6taqEglhJ+VqNbm1+2Ojpr69ZO13P+XRA3k/fbd2ydtTRz3W/dYmtcpBWFKlpl0GT1+4LaOAfirI2LZw+uAuTStBWEBY7bYPjp6d8kM2lcv+IWX26Afb1g6DMKMyzZKnfHaoiNoVHfpsSnKzMhBmEd7kL5OWHXDTUO4Dyyb9pUk4RCCFNbz/74v3FjFgivYu/vv9DcMgjFej+0sbcmgKORte6l4DwjBl2g5blE6TSV80rG0ZCM0c9ZJf31FIkyrc8XpyPQeEHmGtx608S9M7u3Jc6zAIxeoNXJpFy8haOrAehCqVe719lJZz9O1elSH8FX77lG/ctCj3N1NuD4fwleOG4V/k0uJyvxh+gwPCayHtZh6jTRyb2S4EwguuO+ecpK2cnHOnC8Ij4Z3nnaMNnZvXORyiBGV7LrhA27qwoGdZiCuKfmhpLm0ud+lD0RCXUarb8gIGhYLl3UpBXKrZK2cYRM680gziVzFP7WLQ2fVUDMTPXPcuK2RQKlx2rwvB7oYZpxnETs+4AUGs8pCdDHo7h1RGcGq9oIDiZwULWiPolPrrNopfbftrKQSTmPEZFJfIGB+DYNH0n3kUf5D3z6YIAqHd11NcwfruobC3isOPUBTjyPCKsK+EWdkUJcielQB7umEJhUeW3AD7ab6MwmPLmsNebl5B4ZUVN8M+2qRSeC21Deyh3b8pfPLvdrC+xLUUPlubCGu7YyOFXzbeAeu6bQuF37bcBmtKWEGhxIoEWE/M7EIKRQpnx8BaIsZkUSiUNSYC1uFMPkqh2NFkJyyi/Q4KDXa0hxXUX06hyfL6MLurXy+k0Kbw9athZuEjz1NodX5kOEzrjv0U2u2/A+YU8wGFIT6Igfk4HztHYZBzjzlhMg03UhhoY0OYScSLBRSGKngxAqaRdJDCcAeTYA5VF9Aico7tXL3ozRlTnx8/8qmB/R7u1a3Tne3b39mpW6+H+w18auS456fOeHPR6p3HcmgRC6oi8JwDMmlm2T+kzJn09CNd/vynauHwUHi1P7Xt3Hvo87NX/pBNM8sc4ESANdpMczq1bdH0wV2bXg0/Vbqhy6BpC7eepDltboRACnuukGaTtfmtIXfWKwPFIuLvGPzmpvM0m8LnwhAw9bbRTLK3zR2WVMsBjRw17xr67taLNJNt9RAYjoHZNIt9H4zqFOeEQZx1Oo5470eaRfZABwKgWgpNITP1uQ6VEABXJU1IOUdTSKkGw913hgFXtHN27wQnAshR/6E3vilkwJ25D8aqMJ8Bdn7pyFvKwhQi/zx8yTkG2PwKMFD7IwykgvXjWoXCVEJuGrO2gIF0pD2MUnqam4Gze2ancjClsh1e/p6B455WGoZo/B0D5eQHvWvA1Ko/9F4GA+W7xtDPOSKfgbF1ZBMHLMDRaPgWBkb+CCc0i1nFQHCvf7IWLCT2b6uLGAirYqBV63Qar/CL/lVgOZX7rsyn8dJbQ6MnC2i0vOW9r4JFRT24JIdGK3gSupT9mAbLXdirPCwtsvuHF2mwj8tCiwY/0FibH4uCDZTtvY7G+qEBNLj/Ao2U/mJ92Ma1fz9CI124H6q5ZtJAuR/dFQJbcSa+l0MDzXRBqeobaZyvHo+GDZXvu5HG2VgdCt16kkY5PrkBbCt+UjqNcvJWqOIYVUSDbH3ABVsL67mJBika5YASUUtpjIKPWiIINH8vn8ZYGgUF4nbTEKcnxSJIVH3uJA2xOw5+a3WKRtjVJxxBpHTvb2iEU63gp1651M+99FYEnXaLi6hfbi/4ZQz1y54Rh6B0zbSL1G8MfOeaS+0uTo1B0Kr0Qha1m+uCj6JXU7cLk69GUKs48Tx1Wx0Nn8TtpmZZkyoh6EVPOEfNdsfBB61OUa/zEytC/KzC2LPU61QreK1XLrXKnBAN8T/lnzlNrXJ7wUtjqNW58VEQv1F2xClqNQbecM2lTnlToiB+J3JCNnWa64LHKqymTh/WhriM6u8UUaPVFeChStup0foWEFfQ+AtqtL0SPFI1jfr8eC9EMZLSqE9aVXig9j5qc2awC6JYIf0yqM2+2ihR/FHqkvdSFESJyv49m7ocjUcJGp2gLgvqQHgkdq6bmpxohGK1OEtN0lpDeKzZ19TkbAsUo10W9ch5xgXhhZAnL1CPrHa4oqQc6pEaB+GlGp9Qj5wkXEH3fGpx4gEIH3Q5Si3yu+OyHiqkDu43oyF8Um5GEXUofAiX8YSbOqS1gfBZs+3Uwf0E/mAEdcgd7YLwQ8iQC9RhBH6nH3X44loIP9VcSh364hJt86ledn8IBf6aSfXyW+M3ap2kel9dB6FErdVULyMWvyrzDZUrnBAKc3NFRsfUiIurERMd6YK5OZ/Oo3LbwvH/ZlG5H2+CuUTWanJrt74jJs9ZuOrbgz+dzsrjJfKyTv908NtVC+dMHtG3261NakXCXK7fSeVewf9cV0jVZkfCJK5udu+Ql5fsOEsvnd2x5OUh9za7GiZRaqqbihXUwX99RMVOdETgVWzb/9WU3Tn0U87ulFf7t62IwGt3mIrNwy+auKnW0soIqPI39/lH6nEqdTz1H31uLo+AKj+PahUl4D9WUKkLfRA4VyU9+9kRanPks2eTrkLgdD9DpRbjZ3Wo1NfXIjBczZ6Y9yMN8OO8J5q5EBjVVlGpGgAGUqU5pREA1XtM25BLA+VumNajOgIgdDJV6g8gherkPAzDle3w8vcMiO9f7lAWhuuSSXWWA5F5VGZfYxgr9Oax6woYQAVrx94cCmPV3UllssNxD5X5pAKMdO3jizNpApmLH78WRoqYR2XuxiQqUjjCAeM0HL+LJrJrfEMYqH8eFZmId6lGxi0wTLNJe2k6eyc1g2GaH6Ya72AllVhfDcZwtp5+mCZ1eHprJ4xxVQqVWIFvqcL0MBii5Ws/0dR+eq0lDOGc4KYCO3CC/svuASPEjtpDC9gzKhZGSMqk/zKQR78dvxH6hfdMKaJFFKX0DId+fzpEv+XhKP31XS1o1+KNc7SUc2+0gHYxX9Ff6fiKfkotD80qD/+BFvTD8MrQLGIR/bQNS+mfN8OgV5N382hRee82gV7OqfTPcsyiP9wjoVVI1zW0tDVdQ6DVY4X0xxyMoR9ye0CnqKEHaXkHh0ZBpzvO0w/PoiV9d/JmaBT/6kXawsVX46FRw8P03S0IOU1f7a4DfdqtcNM23CvaQZ8qW+mrzDBgHn20KhraJK6lzaxNhDYRi+mjjwD0pG8+cEGXuzbShjbeBV2cr9A3DwKIyqMv3nRCk45f0aa+6ghdnqcvCirhZzPog384oIWj63ba2PauDugxkj6Yjf+IyabXnoMWju47aXM7uzugxRNueis3Fr94gd4aBi1abWEQ2NIKWjxURC9Nw39VzKRX3P2hQ51/MUj8qw506J5Pr2Rdjf95mt4ofBAaRL2Ux6CR91IUNEjKoTdG4f85FtJzeV2hXtig0wwqpweFQb12WfTcUid+FbmTnsq+E+p13sugs7cz1Gtxlp76rhx+45rT9Mz5tlCu8RoGpTWNoVyjE/TMmThc4tZ8euL0jVCtzNRCBqnCqWWgWvwReiI/Eb/T5gRLtqsOVOtwiEHsUAeoVmUjS3aiDf6g5g6WZFEkFKv6MYPcx1WhWKl3WJIdNXEZEQtYLPc4B9RyDshk0Msc4IRigwtZrAVlcFmO/sd5ZTvvgGLXb6b42ebroVjbbbyyjP4OXEnE8DO8vB97OaFWxOQCil8UTI6AWo7uu3l5mc+UQXEqPHeaf7SvbygUa7mP4lf7WkKx0EcP8I/OT66IkoS0nrSLv1G4ZlgDqBY2sYjiN4omhkG1xmO2uvkbh2be7oJnat03+IW5KZuXzZnweKcoqNdgO8XvbG8A9ar+ZeSMBet2b/nkjfH9rodZOAbnUPxBzmAHgkLsFxSX9UUsgkCvcxRXcK4X7C76Q4pifBgNW2t+hKJYR5rDxh7PoyhB3uOwq4h5FB6YFwFbqruTwiM768KGumRSeCizC+wmdDKFFyaHwlZiVlF4ZVUMbOSmdJpQ7skDOzes/2b/iWyaUPpNsI3uOTSD7G8Xvj557JC+93e8pVm92Aqh+FVI+WrxTf/coeejT4558bWPtmfRDHK6wyZGuBlYObsWvfhou+oOeCqm9cMTF+y4wMByj4AdhM5hwOSmLZnS95YaDvimSpvekz7+5iIDZk4oLK/85wyIgs2TO9R0QgFHtdsmrM5lQHxeHhZXcxeNl7t6QmIklCrV5pmUCzTerpqwtGbHabCslGfalIIWoc2HLj1Lgx1vBgvrfJFGOvPJUzeGQivn9QM/zqCRLnaGZQ0uomEKUwY0dMAY8X2W5NEwRYNhUc/SMBueqAxDRT3yRRGN8iws6SUaZOeI2giAKoM20yAvwXqcs2iI/RMTEDB1nvmOhpjlhMWEzqcBjr98EwLs+kkHaYD5obAU1yJqd+7txBCYgKPlzAxqt8gFC4lYSc3cS7uUgmmE3D6/gJqtjIBllF1DvfLeqgeTqTH9AvVaUxYWEb2FWp2fXA0mFD36BLXaEg1LiNxBnX4aXgEmFd5/H3XaEQkLcCymRrsfLQUTC+m+jRotdMD8JlCfzV2cMLv2KdRnHEyvG7X5tC0sofH7hdTE3Rkm1+Ai9Sj4559gGbVnZlOPrOtgbsuphfvNGrCUqybnU4vFMLVW1GLzjbCc61ZSi+Yws7XUIONhB6zongPUIBUmdhfVK5heHhZVemw21bsF5rWeyn3ZABZW819U7t8wravdVOxwN1hc4vdUrLAizCqZauVOiIDlhQ05T7V6wawWUKkl18AWYua6qdJ7MKmwTCq0+w7Yxs1fU6EzITCnllQn62kXbMTZ7zTVaQFz6klltsbBZqp+SWV6wJwGU5VpLtiOc3QhFRkEc3qRapy6G7bU+gjVmARzmkslVlWDTUUvoRLvwJxWUoHCsU7Y1xO5VOAzmNPH9N/RNrC1xrvpv4Uwpxn02ycVYXORc+m3V2FOo+invL8hCDyYRT+Nhjn1pn/2NEFQqLud/nkU5nQX/TKvLIJEqZfpl7thTpXd9N2FZASRTqfph1iY1Bb67EgDBJWa39NnO2BWY+irtFgEmYqb6KvnYFY30EcbohF0IpbTRy1gVo50+mRpOIJQ6Dv0yQknTGs8ffFWKIKS4wX64gWYV7lT9N5EBK1BbnotMxomNpTecg9EELs/n94aDTMLT6d38nogMFzRNerfeEvH++/veMuN9WtEuxAYiVn0zslImFo/euV8exipVL2OQ15L2ZJ2+Ew+fyf/zOG0LStfGZR0bSiM1PQEvTIY5uZYTC8cbwJjuOI7DH7184NF9EDB3uXTH0+s5YQx4vbTCytDYHJl0+ixH+vAAPF95u8rotdyd81+oAYMELOdHtsTBdO79iw9tK0yNHM0HLAgg3448O7DcdCt3Jf0UGY9WMCdRfRIalnoFNJ0yJIzVODY+4/Vd0CnUh/RI0VJsIReOfTAHBf0iXrk0/NU6OTH95eBPs4X6IGcXrCIZsdYkoIB0CbiviV5VO7i+x1c0KZnNktyrBkso8omFu/kn6FJWNL8C9TkzKx2TmjS5DCLt6kKLKTUG0UsxoZa0MLR9vVT1OrYS02hx9UrWYyiN0rBWhKW8Eq+6Qgtrp9yhAbYM/5aaJG4lVeyrCGsp8WXvJzd9zmgQ2IqjeJecjN0cHTfw8tZ3xrWdOOE7bzUgZl3hECDkB5f01Br73ZAg9COs47xUt9PbgMLq9bn/bV7L5DMO7Rp0dMNoEV4/3003K4Hw6CDo8mYFd+e4s+Kftq2aOA1sIPI2tHQJuqZDAbE4UFloEupWo2rhUKUrPpLWQyY089Wggikmu/kM6CyZ1aGCJTwcdkMuMzBoRAB0fUgTWFXOwjj1U+laXxYHcJY5acV0EQujHBBGMfxcAZNZs+dEEZpvoUmtKQ2hBHKv+WmKeWMDYXQrvkBmtbGWhB6OZ4uoImd7QqhU+WVNLlXS0Nok3icpvdNPIQeoc+7aQEXkiF0qLmBFjEvEkK5rmdpGXsaQ6hV+jVaSd5ACJUqrKbFzA6BUKbqt7ScRaUhFIk/RAtaUwFCiRanaEnfVoFQIOkiLepAXQi/JRfQsk40hfDTcFpZViKEPxz/oLXl94TwnesDWp37bxC+Cl1BGxgL4aMZtIVeED7pTXvIaQrhg5vyaBNHYyC8FvMTbWNjGIS33qCNDIDwUlwBbeR4GQjvvEdbGQnhlevdtJWzURDeWECbGQ/hhdIXaTNpEF64i7ZzDYTnXqHtPAHhuUO0nRUQHruOmhXt35S6eP4bU8cPHTp+6hvzF6du2l9EvXJLQ3jqdmqTvmrWU53qufAHrnqdnpq1Kp3axEF4Kpk6FH09vctVKMFVXaZ/XUQdWkN4ajhVK9z0YlIFeKhC0oubCqlaNwhPTadS7jX9K8FLlfqvcVOpgRCeep8KbXsqFj6JfWobFZoI4am3qMrRMXXhh7pjjlKVcRCemkg10h5ywU+uh9KoRj8ITz1BFTZ0ckABR6cNVOEeCE91o9/cy1pDmdbL3PRbcwhPtaK/1jWGUo3X0V81ITxVoYB+SX8Ayj2QTr+cDYHw2Gr6IX9yWWhQdnI+/fA+hOeG0ncp8dAkPoW+6wXhufr01el7odG9p+mjwooQXthP36yLhVax6+ibdRDeGE1fuCeGQrPQiW764hEIb0SeoPeOJ8IAicfpvT2hEF55kl5LjYEhYlLptfsgvFP6CL30rBMGcT5LL+1wQHipD71S1BcG6ltEr9wF4S3HUnohtwsM1SWXXpgN4b1yP9Bj59rCYG3P0WPrXRA+uC6THkpvCMM1TKeHjlSG8MndbnpkT20EQO099EhOUwgf9c6nB9ZUQkBUWkMPnE+C8FmrDJbolTAESNjrLNG+BhB+iN3K4uX1RgD1zWfxUqMh/BL+DotzqAUCqvVRFqNoWiiEv25M5ZVk/K0UAix82BleydIECBXab+blnB1VBiZQYVI2L2dtSwhVEmce4KUuLu0XBZOoOnRVAS918JX2EEo1ePrz3Zn8j/wjW165qzRMpcJ983ad5i9y9n85LAFCi4hrbkqo6IBJuWrc2Da+AoQQQgghhBBCCCGEEEIIIYQQQgRUdMJtySNHJt+WEA0RZGoOTNmfy1/l7k8ZWBMiSDQat52XsX1cIwjbixx7kFd0cGwkhJ2FDchgsTIGhEHYlaPHjyzRjz0cELbUcis9srUlhA31K6CHCvpB2E3oTHphZiiErUSn0iup0RA2Um8vvbS3HoRtxJ+l187GQ9hE1B76YE8UhC2Efk6ffB4KYQcz6KMZEDbQlz7rC2F5N+XTZ/k3QVjdZvphM4TFdaNfukFYWthe+mVvGISVPU4/PQ5hYZEZ9FNGJIR1jaXfxkJY10H67SCEZTWiAo0grGocFRgHYVXbqcB2CIuqSSVqQljTQCoxEMKaUqhECoQ17acS+yGsKZdK5EJYUjQViYawogQqkgBhRbdRkdsgrCiZiiRDWNFIKjISwopGUpGREFaUTEWSIazoNipyG4QVJVCRBAgriqYi0RCWlEMlciCsaT+V2A9hTSuoxAoIaxpAJQZAWFMslYiFsKhtVGAbhFWNpgKjIayqIRVoCGFZ++m3/RDWNYp+GwVhXRHp9FN6BISF9aGf+kBYWcj39Mv3IRCWdg/9cg+Exa2nH9ZDWF3TPPosrymE5SXTZ8kQNjCFPpoCYQfOT+mTT50QtlAujT5IKwdhE3Gn6LVTcRC2EZdGL6XFQdhIuU/plU/LQdiKcwq9MMUJYTfJefRQXjKEDTVdR4+sawphT53SWKK0ThC2FfLIMRbr2CMhEHYWPmw3r2j3sHAI24sfvtHNP3BvHB4PESRi+nySdo6/Opf2SZ8YiCATEdfmviefvK9NXASEEEIIIYQQQgghhBBCCCGEEEIIIYQQQgghhBBCCCGEEEIIIYQQQgghhBBCCCGEEEIIIYQQQgghhBBCCCGEEEIIIYQQQgghhBBCCCGEEMJf/wc940SxAkgudwAAAABJRU5ErkJggg==;rotation=0;" vertex="1" parent="1">
          <mxGeometry x="890" y="260" width="60" height="60" as="geometry" />
        </mxCell>
        <mxCell id="sZKUpHweLC7dckefDk7g-43" value="" style="endArrow=classic;startArrow=classic;html=1;rounded=0;exitX=0.5;exitY=0;exitDx=0;exitDy=0;entryX=0.5;entryY=0;entryDx=0;entryDy=0;" edge="1" parent="1" source="sZKUpHweLC7dckefDk7g-42" target="sZKUpHweLC7dckefDk7g-37">
          <mxGeometry width="50" height="50" relative="1" as="geometry">
            <mxPoint x="550" y="400" as="sourcePoint" />
            <mxPoint x="600" y="350" as="targetPoint" />
            <Array as="points">
              <mxPoint x="920" y="175" />
            </Array>
          </mxGeometry>
        </mxCell>
        <mxCell id="sZKUpHweLC7dckefDk7g-44" value="REST API" style="edgeLabel;html=1;align=center;verticalAlign=middle;resizable=0;points=[];" vertex="1" connectable="0" parent="sZKUpHweLC7dckefDk7g-43">
          <mxGeometry x="-0.2493" relative="1" as="geometry">
            <mxPoint as="offset" />
          </mxGeometry>
        </mxCell>
        <mxCell id="sZKUpHweLC7dckefDk7g-45" value="&lt;font style=&quot;font-size: 30px;&quot;&gt;System Diagram 1&lt;/font&gt;" style="text;html=1;align=center;verticalAlign=middle;resizable=0;points=[];autosize=1;strokeColor=none;fillColor=none;" vertex="1" parent="1">
          <mxGeometry x="400" y="60" width="270" height="50" as="geometry" />
        </mxCell>
        <mxCell id="sZKUpHweLC7dckefDk7g-85" value="Relay Board" style="rounded=0;whiteSpace=wrap;html=1;" vertex="1" parent="1">
          <mxGeometry x="260" y="790" width="80" height="30" as="geometry" />
        </mxCell>
        <mxCell id="sZKUpHweLC7dckefDk7g-86" value="Relay Board" style="rounded=0;whiteSpace=wrap;html=1;" vertex="1" parent="1">
          <mxGeometry x="360" y="790" width="80" height="30" as="geometry" />
        </mxCell>
        <mxCell id="sZKUpHweLC7dckefDk7g-87" value="Relay Board" style="rounded=0;whiteSpace=wrap;html=1;" vertex="1" parent="1">
          <mxGeometry x="460" y="790" width="80" height="30" as="geometry" />
        </mxCell>
        <mxCell id="sZKUpHweLC7dckefDk7g-88" value="Relay Board" style="rounded=0;whiteSpace=wrap;html=1;" vertex="1" parent="1">
          <mxGeometry x="560" y="790" width="80" height="30" as="geometry" />
        </mxCell>
        <mxCell id="sZKUpHweLC7dckefDk7g-89" value="MCU (ESP32)" style="whiteSpace=wrap;html=1;aspect=fixed;" vertex="1" parent="1">
          <mxGeometry x="750" y="860" width="50" height="50" as="geometry" />
        </mxCell>
        <mxCell id="sZKUpHweLC7dckefDk7g-90" value="DTSU666" style="rounded=0;whiteSpace=wrap;html=1;" vertex="1" parent="1">
          <mxGeometry x="190" y="980" width="70" height="30" as="geometry" />
        </mxCell>
        <mxCell id="sZKUpHweLC7dckefDk7g-91" value="DTSU666" style="rounded=0;whiteSpace=wrap;html=1;" vertex="1" parent="1">
          <mxGeometry x="280" y="980" width="70" height="30" as="geometry" />
        </mxCell>
        <mxCell id="sZKUpHweLC7dckefDk7g-92" value="DTSU666" style="rounded=0;whiteSpace=wrap;html=1;" vertex="1" parent="1">
          <mxGeometry x="370" y="980" width="70" height="30" as="geometry" />
        </mxCell>
        <mxCell id="sZKUpHweLC7dckefDk7g-93" value="DTSU666" style="rounded=0;whiteSpace=wrap;html=1;" vertex="1" parent="1">
          <mxGeometry x="460" y="980" width="70" height="30" as="geometry" />
        </mxCell>
        <mxCell id="sZKUpHweLC7dckefDk7g-94" value="DTSU666" style="rounded=0;whiteSpace=wrap;html=1;" vertex="1" parent="1">
          <mxGeometry x="550" y="980" width="70" height="30" as="geometry" />
        </mxCell>
        <mxCell id="sZKUpHweLC7dckefDk7g-95" value="DTSU666" style="rounded=0;whiteSpace=wrap;html=1;" vertex="1" parent="1">
          <mxGeometry x="640" y="980" width="70" height="30" as="geometry" />
        </mxCell>
        <mxCell id="sZKUpHweLC7dckefDk7g-103" value="" style="endArrow=classic;html=1;rounded=0;entryX=0.25;entryY=1;entryDx=0;entryDy=0;exitX=0;exitY=0.75;exitDx=0;exitDy=0;" edge="1" parent="1" source="sZKUpHweLC7dckefDk7g-89" target="sZKUpHweLC7dckefDk7g-85">
          <mxGeometry width="50" height="50" relative="1" as="geometry">
            <mxPoint x="390" y="910" as="sourcePoint" />
            <mxPoint x="440" y="860" as="targetPoint" />
            <Array as="points">
              <mxPoint x="280" y="900" />
            </Array>
          </mxGeometry>
        </mxCell>
        <mxCell id="sZKUpHweLC7dckefDk7g-104" value="Clock" style="edgeLabel;html=1;align=center;verticalAlign=middle;resizable=0;points=[];" vertex="1" connectable="0" parent="sZKUpHweLC7dckefDk7g-103">
          <mxGeometry x="0.6618" y="1" relative="1" as="geometry">
            <mxPoint as="offset" />
          </mxGeometry>
        </mxCell>
        <mxCell id="sZKUpHweLC7dckefDk7g-105" value="" style="endArrow=classic;html=1;rounded=0;entryX=0.5;entryY=1;entryDx=0;entryDy=0;exitX=0;exitY=0.5;exitDx=0;exitDy=0;" edge="1" parent="1" source="sZKUpHweLC7dckefDk7g-89" target="sZKUpHweLC7dckefDk7g-85">
          <mxGeometry width="50" height="50" relative="1" as="geometry">
            <mxPoint x="320" y="890" as="sourcePoint" />
            <mxPoint x="370" y="840" as="targetPoint" />
            <Array as="points">
              <mxPoint x="300" y="885" />
            </Array>
          </mxGeometry>
        </mxCell>
        <mxCell id="sZKUpHweLC7dckefDk7g-106" value="Latch" style="edgeLabel;html=1;align=center;verticalAlign=middle;resizable=0;points=[];" vertex="1" connectable="0" parent="sZKUpHweLC7dckefDk7g-105">
          <mxGeometry x="0.6272" y="1" relative="1" as="geometry">
            <mxPoint as="offset" />
          </mxGeometry>
        </mxCell>
        <mxCell id="sZKUpHweLC7dckefDk7g-107" value="" style="endArrow=classic;html=1;rounded=0;entryX=0.75;entryY=1;entryDx=0;entryDy=0;exitX=0;exitY=0.25;exitDx=0;exitDy=0;" edge="1" parent="1" source="sZKUpHweLC7dckefDk7g-89" target="sZKUpHweLC7dckefDk7g-85">
          <mxGeometry width="50" height="50" relative="1" as="geometry">
            <mxPoint x="350" y="880" as="sourcePoint" />
            <mxPoint x="400" y="830" as="targetPoint" />
            <Array as="points">
              <mxPoint x="320" y="873" />
            </Array>
          </mxGeometry>
        </mxCell>
        <mxCell id="sZKUpHweLC7dckefDk7g-108" value="Data" style="edgeLabel;html=1;align=center;verticalAlign=middle;resizable=0;points=[];" vertex="1" connectable="0" parent="sZKUpHweLC7dckefDk7g-107">
          <mxGeometry x="0.619" relative="1" as="geometry">
            <mxPoint as="offset" />
          </mxGeometry>
        </mxCell>
        <mxCell id="sZKUpHweLC7dckefDk7g-109" value="" style="endArrow=classic;html=1;rounded=0;entryX=0.25;entryY=1;entryDx=0;entryDy=0;exitX=0;exitY=0.75;exitDx=0;exitDy=0;" edge="1" parent="1" source="sZKUpHweLC7dckefDk7g-89" target="sZKUpHweLC7dckefDk7g-86">
          <mxGeometry width="50" height="50" relative="1" as="geometry">
            <mxPoint x="380" y="900" as="sourcePoint" />
            <mxPoint x="260" y="910" as="targetPoint" />
            <Array as="points">
              <mxPoint x="380" y="900" />
            </Array>
          </mxGeometry>
        </mxCell>
        <mxCell id="sZKUpHweLC7dckefDk7g-110" value="" style="endArrow=classic;html=1;rounded=0;entryX=0.5;entryY=1;entryDx=0;entryDy=0;exitX=0;exitY=0.5;exitDx=0;exitDy=0;" edge="1" parent="1" source="sZKUpHweLC7dckefDk7g-89" target="sZKUpHweLC7dckefDk7g-86">
          <mxGeometry width="50" height="50" relative="1" as="geometry">
            <mxPoint x="400" y="890" as="sourcePoint" />
            <mxPoint x="250" y="890" as="targetPoint" />
            <Array as="points">
              <mxPoint x="400" y="885" />
            </Array>
          </mxGeometry>
        </mxCell>
        <mxCell id="sZKUpHweLC7dckefDk7g-111" value="" style="endArrow=classic;html=1;rounded=0;entryX=0.75;entryY=1;entryDx=0;entryDy=0;exitX=0;exitY=0.25;exitDx=0;exitDy=0;" edge="1" parent="1" source="sZKUpHweLC7dckefDk7g-89" target="sZKUpHweLC7dckefDk7g-86">
          <mxGeometry width="50" height="50" relative="1" as="geometry">
            <mxPoint x="180" y="960" as="sourcePoint" />
            <mxPoint x="230" y="910" as="targetPoint" />
            <Array as="points">
              <mxPoint x="420" y="873" />
            </Array>
          </mxGeometry>
        </mxCell>
        <mxCell id="sZKUpHweLC7dckefDk7g-112" value="" style="endArrow=classic;html=1;rounded=0;entryX=0.25;entryY=1;entryDx=0;entryDy=0;exitX=0;exitY=0.75;exitDx=0;exitDy=0;" edge="1" parent="1" source="sZKUpHweLC7dckefDk7g-89" target="sZKUpHweLC7dckefDk7g-87">
          <mxGeometry width="50" height="50" relative="1" as="geometry">
            <mxPoint x="430" y="1260" as="sourcePoint" />
            <mxPoint x="480" y="1210" as="targetPoint" />
            <Array as="points">
              <mxPoint x="480" y="898" />
            </Array>
          </mxGeometry>
        </mxCell>
        <mxCell id="sZKUpHweLC7dckefDk7g-113" value="" style="endArrow=classic;html=1;rounded=0;entryX=0.5;entryY=1;entryDx=0;entryDy=0;exitX=0;exitY=0.5;exitDx=0;exitDy=0;" edge="1" parent="1" source="sZKUpHweLC7dckefDk7g-89" target="sZKUpHweLC7dckefDk7g-87">
          <mxGeometry width="50" height="50" relative="1" as="geometry">
            <mxPoint x="400" y="1280" as="sourcePoint" />
            <mxPoint x="450" y="1230" as="targetPoint" />
            <Array as="points">
              <mxPoint x="500" y="885" />
            </Array>
          </mxGeometry>
        </mxCell>
        <mxCell id="sZKUpHweLC7dckefDk7g-114" value="" style="endArrow=classic;html=1;rounded=0;entryX=0.75;entryY=1;entryDx=0;entryDy=0;exitX=0;exitY=0.25;exitDx=0;exitDy=0;" edge="1" parent="1" source="sZKUpHweLC7dckefDk7g-89" target="sZKUpHweLC7dckefDk7g-87">
          <mxGeometry width="50" height="50" relative="1" as="geometry">
            <mxPoint x="410" y="1230" as="sourcePoint" />
            <mxPoint x="460" y="1180" as="targetPoint" />
            <Array as="points">
              <mxPoint x="520" y="873" />
            </Array>
          </mxGeometry>
        </mxCell>
        <mxCell id="sZKUpHweLC7dckefDk7g-115" value="" style="endArrow=classic;html=1;rounded=0;entryX=0.25;entryY=1;entryDx=0;entryDy=0;exitX=0;exitY=0.75;exitDx=0;exitDy=0;" edge="1" parent="1" source="sZKUpHweLC7dckefDk7g-89" target="sZKUpHweLC7dckefDk7g-88">
          <mxGeometry width="50" height="50" relative="1" as="geometry">
            <mxPoint x="490" y="1290" as="sourcePoint" />
            <mxPoint x="540" y="1240" as="targetPoint" />
            <Array as="points">
              <mxPoint x="580" y="898" />
            </Array>
          </mxGeometry>
        </mxCell>
        <mxCell id="sZKUpHweLC7dckefDk7g-116" value="" style="endArrow=classic;html=1;rounded=0;entryX=0.5;entryY=1;entryDx=0;entryDy=0;exitX=0;exitY=0.5;exitDx=0;exitDy=0;" edge="1" parent="1" source="sZKUpHweLC7dckefDk7g-89" target="sZKUpHweLC7dckefDk7g-88">
          <mxGeometry width="50" height="50" relative="1" as="geometry">
            <mxPoint x="450" y="1250" as="sourcePoint" />
            <mxPoint x="500" y="1200" as="targetPoint" />
            <Array as="points">
              <mxPoint x="600" y="885" />
            </Array>
          </mxGeometry>
        </mxCell>
        <mxCell id="sZKUpHweLC7dckefDk7g-117" value="" style="endArrow=classic;html=1;rounded=0;entryX=0.75;entryY=1;entryDx=0;entryDy=0;exitX=0;exitY=0.25;exitDx=0;exitDy=0;" edge="1" parent="1" source="sZKUpHweLC7dckefDk7g-89" target="sZKUpHweLC7dckefDk7g-88">
          <mxGeometry width="50" height="50" relative="1" as="geometry">
            <mxPoint x="490" y="1230" as="sourcePoint" />
            <mxPoint x="540" y="1180" as="targetPoint" />
            <Array as="points">
              <mxPoint x="620" y="873" />
            </Array>
          </mxGeometry>
        </mxCell>
        <mxCell id="sZKUpHweLC7dckefDk7g-118" value="" style="shape=image;imageAspect=0;aspect=fixed;verticalLabelPosition=bottom;verticalAlign=top;image=data:image/png,iVBORw0KGgoAAAANSUhEUgAAAgAAAAIACAMAAADDpiTIAAAAA3NCSVQICAjb4U/gAAAACXBIWXMAAA58AAAOfAFPrruzAAAAGXRFWHRTb2Z0d2FyZQB3d3cuaW5rc2NhcGUub3Jnm+48GgAAAwBQTFRF////AAAAAAAAAAAAAAAAAAAAAAAAAAAAAAAAAAAAAAAAAAAAAAAAAAAAAAAAAAAAAAAAAAAAAAAAAAAAAAAAAAAAAAAAAAAAAAAAAAAAAAAAAAAAAAAAAAAAAAAAAAAAAAAAAAAAAAAAAAAAAAAAAAAAAAAAAAAAAAAAAAAAAAAAAAAAAAAAAAAAAAAAAAAAAAAAAAAAAAAAAAAAAAAAAAAAAAAAAAAAAAAAAAAAAAAAAAAAAAAAAAAAAAAAAAAAAAAAAAAAAAAAAAAAAAAAAAAAAAAAAAAAAAAAAAAAAAAAAAAAAAAAAAAAAAAAAAAAAAAAAAAAAAAAAAAAAAAAAAAAAAAAAAAAAAAAAAAAAAAAAAAAAAAAAAAAAAAAAAAAAAAAAAAAAAAAAAAAAAAAAAAAAAAAAAAAAAAAAAAAAAAAAAAAAAAAAAAAAAAAAAAAAAAAAAAAAAAAAAAAAAAAAAAAAAAAAAAAAAAAAAAAAAAAAAAAAAAAAAAAAAAAAAAAAAAAAAAAAAAAAAAAAAAAAAAAAAAAAAAAAAAAAAAAAAAAAAAAAAAAAAAAAAAAAAAAAAAAAAAAAAAAAAAAAAAAAAAAAAAAAAAAAAAAAAAAAAAAAAAAAAAAAAAAAAAAAAAAAAAAAAAAAAAAAAAAAAAAAAAAAAAAAAAAAAAAAAAAAAAAAAAAAAAAAAAAAAAAAAAAAAAAAAAAAAAAAAAAAAAAAAAAAAAAAAAAAAAAAAAAAAAAAAAAAAAAAAAAAAAAAAAAAAAAAAAAAAAAAAAAAAAAAAAAAAAAAAAAAAAAAAAAAAAAAAAAAAAAAAAAAAAAAAAAAAAAAAAAAAAAAAAAAAAAAAAAAAAAAAAAAAAAAAAAAAAAAAAAAAAAAAAAAAAAAAAAAAAAAAAAAAAAAAAAAAAAAAAAAAAAAAAAAAAAAAAAAAAAAAAAAAAAAAAAAAAAAAAAAAAAAAAAAAAAAAAAAAAAAAAAAAAAAAAAAAAAAAAAAAAAAAAAAAAAAAAAAAAAAAAACyO34QAAAP90Uk5TAAECAwQFBgcICQoLDA0ODxAREhMUFRYXGBkaGxwdHh8gISIjJCUmJygpKissLS4vMDEyMzQ1Njc4OTo7PD0+P0BBQkNERUZHSElKS0xNTk9QUVJTVFVWV1hZWltcXV5fYGFiY2RlZmdoaWprbG1ub3BxcnN0dXZ3eHl6e3x9fn+AgYKDhIWGh4iJiouMjY6PkJGSk5SVlpeYmZqbnJ2en6ChoqOkpaanqKmqq6ytrq+wsbKztLW2t7i5uru8vb6/wMHCw8TFxsfIycrLzM3Oz9DR0tPU1dbX2Nna29zd3t/g4eLj5OXm5+jp6uvs7e7v8PHy8/T19vf4+fr7/P3+6wjZNQAAGC1JREFUGBntwQmcjfX+B/DPOTNzmDGWGclYxpJJg7lCRNmuNG0TQki63SmFJJckW7Z0pRA32tDm0qZrCcU0de1bRNEUsjMZ+xhmn/P5d7v33yvFzFl+v+c8z3O+7zeEEEIIIYQQQgghhBBCCCGEEEIIIYQQQgghhBBCCCGEEEIIIYQQQgghhBBCCCGEEEIIIYQQQgghhBBCCCGEEEIIIYQQQgghhBBCCCGEEMIXkVVq1U1o0qJtYlLnHg8+0n/Q08888/Sg/o882KNzUmLbFk0S6taqEglhJ+VqNbm1+2Ojpr69ZO13P+XRA3k/fbd2ydtTRz3W/dYmtcpBWFKlpl0GT1+4LaOAfirI2LZw+uAuTStBWEBY7bYPjp6d8kM2lcv+IWX26Afb1g6DMKMyzZKnfHaoiNoVHfpsSnKzMhBmEd7kL5OWHXDTUO4Dyyb9pUk4RCCFNbz/74v3FjFgivYu/vv9DcMgjFej+0sbcmgKORte6l4DwjBl2g5blE6TSV80rG0ZCM0c9ZJf31FIkyrc8XpyPQeEHmGtx608S9M7u3Jc6zAIxeoNXJpFy8haOrAehCqVe719lJZz9O1elSH8FX77lG/ctCj3N1NuD4fwleOG4V/k0uJyvxh+gwPCayHtZh6jTRyb2S4EwguuO+ecpK2cnHOnC8Ij4Z3nnaMNnZvXORyiBGV7LrhA27qwoGdZiCuKfmhpLm0ud+lD0RCXUarb8gIGhYLl3UpBXKrZK2cYRM680gziVzFP7WLQ2fVUDMTPXPcuK2RQKlx2rwvB7oYZpxnETs+4AUGs8pCdDHo7h1RGcGq9oIDiZwULWiPolPrrNopfbftrKQSTmPEZFJfIGB+DYNH0n3kUf5D3z6YIAqHd11NcwfruobC3isOPUBTjyPCKsK+EWdkUJcielQB7umEJhUeW3AD7ab6MwmPLmsNebl5B4ZUVN8M+2qRSeC21Deyh3b8pfPLvdrC+xLUUPlubCGu7YyOFXzbeAeu6bQuF37bcBmtKWEGhxIoEWE/M7EIKRQpnx8BaIsZkUSiUNSYC1uFMPkqh2NFkJyyi/Q4KDXa0hxXUX06hyfL6MLurXy+k0Kbw9athZuEjz1NodX5kOEzrjv0U2u2/A+YU8wGFIT6Igfk4HztHYZBzjzlhMg03UhhoY0OYScSLBRSGKngxAqaRdJDCcAeTYA5VF9Aico7tXL3ozRlTnx8/8qmB/R7u1a3Tne3b39mpW6+H+w18auS456fOeHPR6p3HcmgRC6oi8JwDMmlm2T+kzJn09CNd/vynauHwUHi1P7Xt3Hvo87NX/pBNM8sc4ESANdpMczq1bdH0wV2bXg0/Vbqhy6BpC7eepDltboRACnuukGaTtfmtIXfWKwPFIuLvGPzmpvM0m8LnwhAw9bbRTLK3zR2WVMsBjRw17xr67taLNJNt9RAYjoHZNIt9H4zqFOeEQZx1Oo5470eaRfZABwKgWgpNITP1uQ6VEABXJU1IOUdTSKkGw913hgFXtHN27wQnAshR/6E3vilkwJ25D8aqMJ8Bdn7pyFvKwhQi/zx8yTkG2PwKMFD7IwykgvXjWoXCVEJuGrO2gIF0pD2MUnqam4Gze2ancjClsh1e/p6B455WGoZo/B0D5eQHvWvA1Ko/9F4GA+W7xtDPOSKfgbF1ZBMHLMDRaPgWBkb+CCc0i1nFQHCvf7IWLCT2b6uLGAirYqBV63Qar/CL/lVgOZX7rsyn8dJbQ6MnC2i0vOW9r4JFRT24JIdGK3gSupT9mAbLXdirPCwtsvuHF2mwj8tCiwY/0FibH4uCDZTtvY7G+qEBNLj/Ao2U/mJ92Ma1fz9CI124H6q5ZtJAuR/dFQJbcSa+l0MDzXRBqeobaZyvHo+GDZXvu5HG2VgdCt16kkY5PrkBbCt+UjqNcvJWqOIYVUSDbH3ABVsL67mJBika5YASUUtpjIKPWiIINH8vn8ZYGgUF4nbTEKcnxSJIVH3uJA2xOw5+a3WKRtjVJxxBpHTvb2iEU63gp1651M+99FYEnXaLi6hfbi/4ZQz1y54Rh6B0zbSL1G8MfOeaS+0uTo1B0Kr0Qha1m+uCj6JXU7cLk69GUKs48Tx1Wx0Nn8TtpmZZkyoh6EVPOEfNdsfBB61OUa/zEytC/KzC2LPU61QreK1XLrXKnBAN8T/lnzlNrXJ7wUtjqNW58VEQv1F2xClqNQbecM2lTnlToiB+J3JCNnWa64LHKqymTh/WhriM6u8UUaPVFeChStup0foWEFfQ+AtqtL0SPFI1jfr8eC9EMZLSqE9aVXig9j5qc2awC6JYIf0yqM2+2ihR/FHqkvdSFESJyv49m7ocjUcJGp2gLgvqQHgkdq6bmpxohGK1OEtN0lpDeKzZ19TkbAsUo10W9ch5xgXhhZAnL1CPrHa4oqQc6pEaB+GlGp9Qj5wkXEH3fGpx4gEIH3Q5Si3yu+OyHiqkDu43oyF8Um5GEXUofAiX8YSbOqS1gfBZs+3Uwf0E/mAEdcgd7YLwQ8iQC9RhBH6nH3X44loIP9VcSh364hJt86ledn8IBf6aSfXyW+M3ap2kel9dB6FErdVULyMWvyrzDZUrnBAKc3NFRsfUiIurERMd6YK5OZ/Oo3LbwvH/ZlG5H2+CuUTWanJrt74jJs9ZuOrbgz+dzsrjJfKyTv908NtVC+dMHtG3261NakXCXK7fSeVewf9cV0jVZkfCJK5udu+Ql5fsOEsvnd2x5OUh9za7GiZRaqqbihXUwX99RMVOdETgVWzb/9WU3Tn0U87ulFf7t62IwGt3mIrNwy+auKnW0soIqPI39/lH6nEqdTz1H31uLo+AKj+PahUl4D9WUKkLfRA4VyU9+9kRanPks2eTrkLgdD9DpRbjZ3Wo1NfXIjBczZ6Y9yMN8OO8J5q5EBjVVlGpGgAGUqU5pREA1XtM25BLA+VumNajOgIgdDJV6g8gherkPAzDle3w8vcMiO9f7lAWhuuSSXWWA5F5VGZfYxgr9Oax6woYQAVrx94cCmPV3UllssNxD5X5pAKMdO3jizNpApmLH78WRoqYR2XuxiQqUjjCAeM0HL+LJrJrfEMYqH8eFZmId6lGxi0wTLNJe2k6eyc1g2GaH6Ya72AllVhfDcZwtp5+mCZ1eHprJ4xxVQqVWIFvqcL0MBii5Ws/0dR+eq0lDOGc4KYCO3CC/svuASPEjtpDC9gzKhZGSMqk/zKQR78dvxH6hfdMKaJFFKX0DId+fzpEv+XhKP31XS1o1+KNc7SUc2+0gHYxX9Ff6fiKfkotD80qD/+BFvTD8MrQLGIR/bQNS+mfN8OgV5N382hRee82gV7OqfTPcsyiP9wjoVVI1zW0tDVdQ6DVY4X0xxyMoR9ye0CnqKEHaXkHh0ZBpzvO0w/PoiV9d/JmaBT/6kXawsVX46FRw8P03S0IOU1f7a4DfdqtcNM23CvaQZ8qW+mrzDBgHn20KhraJK6lzaxNhDYRi+mjjwD0pG8+cEGXuzbShjbeBV2cr9A3DwKIyqMv3nRCk45f0aa+6ghdnqcvCirhZzPog384oIWj63ba2PauDugxkj6Yjf+IyabXnoMWju47aXM7uzugxRNueis3Fr94gd4aBi1abWEQ2NIKWjxURC9Nw39VzKRX3P2hQ51/MUj8qw506J5Pr2Rdjf95mt4ofBAaRL2Ux6CR91IUNEjKoTdG4f85FtJzeV2hXtig0wwqpweFQb12WfTcUid+FbmTnsq+E+p13sugs7cz1Gtxlp76rhx+45rT9Mz5tlCu8RoGpTWNoVyjE/TMmThc4tZ8euL0jVCtzNRCBqnCqWWgWvwReiI/Eb/T5gRLtqsOVOtwiEHsUAeoVmUjS3aiDf6g5g6WZFEkFKv6MYPcx1WhWKl3WJIdNXEZEQtYLPc4B9RyDshk0Msc4IRigwtZrAVlcFmO/sd5ZTvvgGLXb6b42ebroVjbbbyyjP4OXEnE8DO8vB97OaFWxOQCil8UTI6AWo7uu3l5mc+UQXEqPHeaf7SvbygUa7mP4lf7WkKx0EcP8I/OT66IkoS0nrSLv1G4ZlgDqBY2sYjiN4omhkG1xmO2uvkbh2be7oJnat03+IW5KZuXzZnweKcoqNdgO8XvbG8A9ar+ZeSMBet2b/nkjfH9rodZOAbnUPxBzmAHgkLsFxSX9UUsgkCvcxRXcK4X7C76Q4pifBgNW2t+hKJYR5rDxh7PoyhB3uOwq4h5FB6YFwFbqruTwiM768KGumRSeCizC+wmdDKFFyaHwlZiVlF4ZVUMbOSmdJpQ7skDOzes/2b/iWyaUPpNsI3uOTSD7G8Xvj557JC+93e8pVm92Aqh+FVI+WrxTf/coeejT4558bWPtmfRDHK6wyZGuBlYObsWvfhou+oOeCqm9cMTF+y4wMByj4AdhM5hwOSmLZnS95YaDvimSpvekz7+5iIDZk4oLK/85wyIgs2TO9R0QgFHtdsmrM5lQHxeHhZXcxeNl7t6QmIklCrV5pmUCzTerpqwtGbHabCslGfalIIWoc2HLj1Lgx1vBgvrfJFGOvPJUzeGQivn9QM/zqCRLnaGZQ0uomEKUwY0dMAY8X2W5NEwRYNhUc/SMBueqAxDRT3yRRGN8iws6SUaZOeI2giAKoM20yAvwXqcs2iI/RMTEDB1nvmOhpjlhMWEzqcBjr98EwLs+kkHaYD5obAU1yJqd+7txBCYgKPlzAxqt8gFC4lYSc3cS7uUgmmE3D6/gJqtjIBllF1DvfLeqgeTqTH9AvVaUxYWEb2FWp2fXA0mFD36BLXaEg1LiNxBnX4aXgEmFd5/H3XaEQkLcCymRrsfLQUTC+m+jRotdMD8JlCfzV2cMLv2KdRnHEyvG7X5tC0sofH7hdTE3Rkm1+Ai9Sj4559gGbVnZlOPrOtgbsuphfvNGrCUqybnU4vFMLVW1GLzjbCc61ZSi+Yws7XUIONhB6zongPUIBUmdhfVK5heHhZVemw21bsF5rWeyn3ZABZW819U7t8wravdVOxwN1hc4vdUrLAizCqZauVOiIDlhQ05T7V6wawWUKkl18AWYua6qdJ7MKmwTCq0+w7Yxs1fU6EzITCnllQn62kXbMTZ7zTVaQFz6klltsbBZqp+SWV6wJwGU5VpLtiOc3QhFRkEc3qRapy6G7bU+gjVmARzmkslVlWDTUUvoRLvwJxWUoHCsU7Y1xO5VOAzmNPH9N/RNrC1xrvpv4Uwpxn02ycVYXORc+m3V2FOo+invL8hCDyYRT+Nhjn1pn/2NEFQqLud/nkU5nQX/TKvLIJEqZfpl7thTpXd9N2FZASRTqfph1iY1Bb67EgDBJWa39NnO2BWY+irtFgEmYqb6KvnYFY30EcbohF0IpbTRy1gVo50+mRpOIJQ6Dv0yQknTGs8ffFWKIKS4wX64gWYV7lT9N5EBK1BbnotMxomNpTecg9EELs/n94aDTMLT6d38nogMFzRNerfeEvH++/veMuN9WtEuxAYiVn0zslImFo/euV8exipVL2OQ15L2ZJ2+Ew+fyf/zOG0LStfGZR0bSiM1PQEvTIY5uZYTC8cbwJjuOI7DH7184NF9EDB3uXTH0+s5YQx4vbTCytDYHJl0+ixH+vAAPF95u8rotdyd81+oAYMELOdHtsTBdO79iw9tK0yNHM0HLAgg3448O7DcdCt3Jf0UGY9WMCdRfRIalnoFNJ0yJIzVODY+4/Vd0CnUh/RI0VJsIReOfTAHBf0iXrk0/NU6OTH95eBPs4X6IGcXrCIZsdYkoIB0CbiviV5VO7i+x1c0KZnNktyrBkso8omFu/kn6FJWNL8C9TkzKx2TmjS5DCLt6kKLKTUG0UsxoZa0MLR9vVT1OrYS02hx9UrWYyiN0rBWhKW8Eq+6Qgtrp9yhAbYM/5aaJG4lVeyrCGsp8WXvJzd9zmgQ2IqjeJecjN0cHTfw8tZ3xrWdOOE7bzUgZl3hECDkB5f01Br73ZAg9COs47xUt9PbgMLq9bn/bV7L5DMO7Rp0dMNoEV4/3003K4Hw6CDo8mYFd+e4s+Kftq2aOA1sIPI2tHQJuqZDAbE4UFloEupWo2rhUKUrPpLWQyY089Wggikmu/kM6CyZ1aGCJTwcdkMuMzBoRAB0fUgTWFXOwjj1U+laXxYHcJY5acV0EQujHBBGMfxcAZNZs+dEEZpvoUmtKQ2hBHKv+WmKeWMDYXQrvkBmtbGWhB6OZ4uoImd7QqhU+WVNLlXS0Nok3icpvdNPIQeoc+7aQEXkiF0qLmBFjEvEkK5rmdpGXsaQ6hV+jVaSd5ACJUqrKbFzA6BUKbqt7ScRaUhFIk/RAtaUwFCiRanaEnfVoFQIOkiLepAXQi/JRfQsk40hfDTcFpZViKEPxz/oLXl94TwnesDWp37bxC+Cl1BGxgL4aMZtIVeED7pTXvIaQrhg5vyaBNHYyC8FvMTbWNjGIS33qCNDIDwUlwBbeR4GQjvvEdbGQnhlevdtJWzURDeWECbGQ/hhdIXaTNpEF64i7ZzDYTnXqHtPAHhuUO0nRUQHruOmhXt35S6eP4bU8cPHTp+6hvzF6du2l9EvXJLQ3jqdmqTvmrWU53qufAHrnqdnpq1Kp3axEF4Kpk6FH09vctVKMFVXaZ/XUQdWkN4ajhVK9z0YlIFeKhC0oubCqlaNwhPTadS7jX9K8FLlfqvcVOpgRCeep8KbXsqFj6JfWobFZoI4am3qMrRMXXhh7pjjlKVcRCemkg10h5ywU+uh9KoRj8ITz1BFTZ0ckABR6cNVOEeCE91o9/cy1pDmdbL3PRbcwhPtaK/1jWGUo3X0V81ITxVoYB+SX8Ayj2QTr+cDYHw2Gr6IX9yWWhQdnI+/fA+hOeG0ncp8dAkPoW+6wXhufr01el7odG9p+mjwooQXthP36yLhVax6+ibdRDeGE1fuCeGQrPQiW764hEIb0SeoPeOJ8IAicfpvT2hEF55kl5LjYEhYlLptfsgvFP6CL30rBMGcT5LL+1wQHipD71S1BcG6ltEr9wF4S3HUnohtwsM1SWXXpgN4b1yP9Bj59rCYG3P0WPrXRA+uC6THkpvCMM1TKeHjlSG8MndbnpkT20EQO099EhOUwgf9c6nB9ZUQkBUWkMPnE+C8FmrDJbolTAESNjrLNG+BhB+iN3K4uX1RgD1zWfxUqMh/BL+DotzqAUCqvVRFqNoWiiEv25M5ZVk/K0UAix82BleydIECBXab+blnB1VBiZQYVI2L2dtSwhVEmce4KUuLu0XBZOoOnRVAS918JX2EEo1ePrz3Zn8j/wjW165qzRMpcJ983ad5i9y9n85LAFCi4hrbkqo6IBJuWrc2Da+AoQQQgghhBBCCCGEEEIIIYQQQgRUdMJtySNHJt+WEA0RZGoOTNmfy1/l7k8ZWBMiSDQat52XsX1cIwjbixx7kFd0cGwkhJ2FDchgsTIGhEHYlaPHjyzRjz0cELbUcis9srUlhA31K6CHCvpB2E3oTHphZiiErUSn0iup0RA2Um8vvbS3HoRtxJ+l187GQ9hE1B76YE8UhC2Efk6ffB4KYQcz6KMZEDbQlz7rC2F5N+XTZ/k3QVjdZvphM4TFdaNfukFYWthe+mVvGISVPU4/PQ5hYZEZ9FNGJIR1jaXfxkJY10H67SCEZTWiAo0grGocFRgHYVXbqcB2CIuqSSVqQljTQCoxEMKaUqhECoQ17acS+yGsKZdK5EJYUjQViYawogQqkgBhRbdRkdsgrCiZiiRDWNFIKjISwopGUpGREFaUTEWSIazoNipyG4QVJVCRBAgriqYi0RCWlEMlciCsaT+V2A9hTSuoxAoIaxpAJQZAWFMslYiFsKhtVGAbhFWNpgKjIayqIRVoCGFZ++m3/RDWNYp+GwVhXRHp9FN6BISF9aGf+kBYWcj39Mv3IRCWdg/9cg+Exa2nH9ZDWF3TPPosrymE5SXTZ8kQNjCFPpoCYQfOT+mTT50QtlAujT5IKwdhE3Gn6LVTcRC2EZdGL6XFQdhIuU/plU/LQdiKcwq9MMUJYTfJefRQXjKEDTVdR4+sawphT53SWKK0ThC2FfLIMRbr2CMhEHYWPmw3r2j3sHAI24sfvtHNP3BvHB4PESRi+nySdo6/Opf2SZ8YiCATEdfmviefvK9NXASEEEIIIYQQQgghhBBCCCGEEEIIIYQQQgghhBBCCCGEEEIIIYQQQgghhBBCCCGEEEIIIYQQQgghhBBCCCGEEEIIIYQQQgghhBBCCCGEEMJf/wc940SxAkgudwAAAABJRU5ErkJggg==;rotation=35;" vertex="1" parent="1">
          <mxGeometry x="800" y="800" width="60" height="60" as="geometry" />
        </mxCell>
        <mxCell id="sZKUpHweLC7dckefDk7g-119" value="Control System" style="shape=image;imageAspect=0;aspect=fixed;verticalLabelPosition=bottom;verticalAlign=top;image=data:image/png,iVBORw0KGgoAAAANSUhEUgAAAgAAAAIACAYAAAD0eNT6AAAABHNCSVQICAgIfAhkiAAAAAlwSFlzAAAOxAAADsQBlSsOGwAAABl0RVh0U29mdHdhcmUAd3d3Lmlua3NjYXBlLm9yZ5vuPBoAAA4KSURBVHic7d1ZrK1nQcfhX0/LwbZSEBDEUoZKWoYC1iIyGwQBUSMExcaBoQIJF0a9IcZEjTFGTTRqQohBBjVGLzCKGoPRKpFRQ6EahQrG0iIEBWVoKW2hnO3FagLBtmfa33rX+t7nSc5tz391n6zvt79hrQIAAAAAAAAAAAAAAAAAAAAAAAAAAAAAAAAAAAAAAAAAAAAAAAAAAAAAAAAAAAAAAAAAAAAAAAAAAAAAAAAAAAAAAAAAAAAAAAAAAAAAAAAAAAAAAAAAAAAAAAAAAAAAAAAAAAAAAAAAAAAAAAAAAAAAAAAAAAAAAAAAAAAAAAAAAAAAAAAAAAAAAAAAAAAAAAAAAAAAAAAAAAAAAAAAAAAAAAAAAAAAAAAAAAAAAAAAAAAAAAAAAAAAAAAAAAAAAAAAAAAAAAAAAAAAAAAAAAAAAAAAAAAAAAAAAAAAAAAAAAAAAAAAAAAAAAAA4A6cMXoAw31t9bTqydXDq4dU96rOq84cNws4JF+qbqg+W11XfbB6Z/X31Y3jZjGaAJjTkeq51RXVd1dHx84BBvhC9ZbqjdVfVMfGzmHbBMB8XlD9QvWo0UOAnXFN9fPVm0YPYXsEwDwuqH6nevboIcDOurJ6WXX96CEsTwDM4bnV71f3GT0E2Hmfrl7c5rIAK+Ymr/V7UfVHbW72Azies6sXVp+srhq8hQUJgHV7WfX6/JyBk3OkzQ3C/1O9Z/AWFuISwHp9T/XmHPyBU3es+v7qT0cP4fAJgHW6oLo61/yB03dj9bjqQ6OHcLiOjB7AIt6Ygz9wOO5RvS6/MK6OAFify6tnjB4BrMpTqx8dPYLDpejW5czqA9VFo4cAq3NtdXF12+ghHA5nANbl+Tn4A8u4sPrB0SM4PAJgXa4YPQBYtZeOHsDhcQlgPe5T/Vd11ughwGodq85v817DnnMGYD2enoM/sKwj1XeMHsHhEADr8ZTRA4ApPHX0AA6HAFiPR4weAEzh4aMHcDgEwHo8dPQAYArfNHoAh0MArMe9Rg8ApnDP0QM4HAJgPc4ZPQCYgq8WXwl3ja/HNh7p/FL1iermLfxdwMk5p7pfy/9i5/Fx2DE3VQcL/flc9arqvlt7NcCpuF/1s20ifan3g2NbezXACVkqAG6oLtvi6wBO31NaLgIEAOyYpQLgldt8EcCh+ekEAExhiQC4sfqabb4I4NDcu/piAoA74SkA7so11S2jRwCn5FPVR0aPYHcJAO7KTaMHAKflxtED2F0CAAAmJAAAYEICAAAmJAAAYEICAAAmJAAAYEICAAAmJAAAYEICAAAmJAAAYEICAAAmJAAAYEICAAAmJAAAYEICAAAmJAAAYEICAGC9DkYPYHcJAACYkAAAgAkJAACYkAAAgAkJAACYkAAAgAkJAACYkAAAgAkJAACYkAAAgAkJAACYkAAAgAkJAACYkAAAgAkJAACYkAAAWK+D0QPYXQIAACYkAABgQgIAACYkAABgQgIAACYkAABgQgIAACYkAABgQgIAACYkAABgQgIAACYkAABgQgIAACYkAABgQgIAACYkAADW62D0AHaXAACACQkAAJiQAACACQkAAJiQAACACQkAAJiQAACACQkAAJiQAACACQkAAJiQAACACQkAAJiQAACACQkAAJiQAACACQkAAJiQAABYr4PRA9hdAgAAJiQAAGBCAgAAJiQAAGBCAgAAJiQAAGBCAgAAJiQAAGBCAgAAJiQAAGBCAgAAJiQAAGBCAgAAJiQAAGBCAgAAJiQAANbrYPQAdpcAAIAJCQAAmJAAAIAJCQAAmJAAAIAJCQAAmJAAAIAJCQAAmJAAAIAJCQAAmJAAAIAJCQAAmJAAAIAJCQAAmJAAAIAJCQCA9ToYPYDdJQAAYEICAAAmJAAAYEICAAAmJAAAYEICAAAmJAAAYEICAAAmJAAAYEICAAAmJAAAYEICAAAmJAAAYEICAAAmJAAAYEICAAAmJAAA1utg9AB2lwAAgAkJAACYkAAAgAkJAACYkAAAgAkJAACYkAAAgAkJAACYkAAAgAkJAACYkAAAgAkJAACYkAAAgAkJAACYkAAAgAkJAID1Ohg9gN0lAABgQgIAACYkAABgQgIAACYkAABgQgIAACYkAABgQgIAACYkAABgQgIAACYkAABgQgIAACYkAABgQgIAACYkALgr/n3Afjtj9AB2lzd47soDRg8ATss3jh4ALO+m6mCBPxdt80UAh+bRLfOecGybLwI4vqUC4M05jQj75ozqLxMAMIWlAuCgek11dHsvBTgNd69e23LvBwJgJfxmtx43Vecs+N//cPV71dXV5xf8e4BTc051afWS6iEL/j0HuX9sFQTAeiwdAAAlAFbDDxEAJiQAAGBCAgAAJiQAAGBCAgAAJiQAAGBCAgAAJiQAAGBCAgAAJiQAAGBCAgAAJiQAAGBCAgAAJiQAAGBCAgAAJiQAAGBCAgAAJiQAAGBCAgAAJnTW6AEcmkuqM0aPAAAAAAAAAAAAAAAAAAAAAAAAAOA4fHLc/vqN6vzRI4Dpfaz6qdEjOHkCYD+9oPrj0SMAbveC6k9Gj+DkCID9c7R6f/Ww0UMAbvfh6pHVLaOHcOLOHD2Ak/aq6gdGjwD4Cl9X3VS9Y/QQTpwzAPvl/tWHqvNGDwH4Kp+rLqo+PnoIJ8YZgP3y6urbRo8AuANHq3tXfzZ6CCfGGYD9cWl1VXVk9BCAO3GsekL1ntFDOD4Hk/3xW/l5AbvtSJv3Kr9c7gEHlP1wefXU0SMATsATqxeOHsHxqbTdd3Z1TfXg0UMATtBHq4urz48ewp1zE+Du+5nqeaNHAJyE86pbq7eNHsKdcwZgt51ffbA6d/QQgJN0c/Xw6iOjh3DH3AOw2341B39gP51d/dLoEdw5ZwB21xOqd+VnBOyvg+pp+YTAneTgspvOqN6dD/0B9t97q8e3+YwAdohLALvpR3LwB9bhsuqHRo/g/3MGYPec0+axvweNHgJwSD7W5rHAm0YP4cs8Brh7fq763tEjAA7RedWXqreOHsKXOQOwWy6o/q3NWQCANbm5emR13eAd3M49ALvl13LwB9bp7OpXRo/gy5wB2B1PavOojJ8JsGbfnk8I3AkONrvhSPUP1beOHgKwsKurx+WxwOFcAtgNL83BH5jDpdVLRo/AGYBdcI82n/f/gNFDALbkE9VF1WdHD5mZxwDH+8XqOaNHAGzRuW1+Ab1y9JCZOQMw1oXVB6q7jx4CsGVfqC6p/n30kFm5B2CsX8/BH5jT0TbfeMogzgCM8/Tq70aPABjsWdXfjB4xIwEwxpnV+6rHjB4CMNj7q2+ubhs9ZDYuAYzx8hz8AaoeVf3Y6BEzcgZg+86rPlTdf/QQgB3xyTaPBX5m9JCZeAxw+365euboEQA75Nw2NwX+9eghM3EGYLseVv1r7vwH+GpfrB7d5oPR2AL3AGzXb+bgD3BH7tbmG1HZEmcAtucZ+dQrgOP5ruqvRo+YgQDYjrPafAPWJaOHAOy4a6rHtrkkwIJcAtiOV+TgD3AiHtHmUWkW5gzA8u5e/Ud1/ughAHvio21umr519JA1cwZgeVfk4A9wMh5YvWT0iLUTAMt72egBAHvIpwMuzCWAZV3Y5vQ/nI6PV++tbh495ASdU11WfcPoIey1gzbvodcN3rFaZ40esHLPGT2Avfbp6pXVm6pjg7ecrCPV5dVrqnsO3sJ+OqPNe+hvjx6yVgJgWZeNHsDeurV6dvWe0UNO0bHqD9ucAXt7mw95gZP1LaMHrJl7AJb12NED2Fuva38P/l/pH6vXjx7B3vKtqQsSAMv6+tED2FtvGj3gEK3ptbBd9xs9YM0EwLJc++RUXTt6wCFyIyynynvoggQA7KZzRw84RGt6LWyXJ9UWJACW9enRA9hbTxo94BA9efQA9tanRg9YMwGwrE+MHsDe+onWcef80TavBU7Ff48esGYCYFn/NHoAe+sxbZ5/PnP0kNNwVvXa6lGjh7C3/nn0gDXzOQDLeu/oAey1K6rHVa9u80jgDWPnnLDzqsdXP55vweT0XDV6wJq5wWJZF1TX5/8zwMk6Vj2o+tjoIWvlEsCy/rN61+gRAHvoHTn4L0oALO8NowcA7CHvnQtzanp5d6s+WD109BCAPXFtdXF12+gha7bPdxjvi2PVZ6rnjR4CsCd+srp69Ii1cwZge96SrwcGOJ4rq2dVB6OHrJ0A2J4HV++r7j16CMCO+t/q0jY3ULMwNwFuz/VtLgPcMnoIwA66pfq+HPy3RgBs19urH65uHT0EYIfcUl1evXP0kJm4BDDGE6s/r+47egjAYJ+qnl+9bfSQ2TgDMMa723xU6ltHDwEY6G+ry3LwH0IAjPPh6hnVK6qPDN4CsE3XVy+vvrO6buyUebkEsBuOVi+qXtzme+CFGbA2x9pc4//d6g+qLwxdgwDYQQ+sntnmUZjHtHls8J5tvmENYB/cUH22zWN9/9LmEegr89n+AAAAAAAAAAAAAAAAAAAAAAAAAAAAAAAAAAAAAAAAAAAAAAAAAAAAAAAAAAAAAAAAAAAAAAAAAAAAAAAAAAAAAAAAAAAAAAAAAAAAAAAAAAAAAAAAAAAAAAAAAAAAAAAAAAAAAAAAAAAAAAAAAAAAAAAAAAAAAAAAAAAAAAAAAAAAAAAAAAAAAAAAAAAAAAAAAAAAAAAAAAAAAAAAAAAAAAAAAAAAAAAAAAAAAAAAAAAAAAAAAAAAAAAAAAAAAAAAAAAAAAAAAAAAAAAAAAAAAAAAAAAAAAAAAAAAAAAAAAAAAAAAAAAAAAAAAADsvv8D3e44diGXAOcAAAAASUVORK5CYII=;" vertex="1" parent="1">
          <mxGeometry x="860" y="940" width="120" height="120" as="geometry" />
        </mxCell>
        <mxCell id="sZKUpHweLC7dckefDk7g-120" value="" style="shape=image;imageAspect=0;aspect=fixed;verticalLabelPosition=bottom;verticalAlign=top;image=data:image/png,iVBORw0KGgoAAAANSUhEUgAAAgAAAAIACAMAAADDpiTIAAAAA3NCSVQICAjb4U/gAAAACXBIWXMAAA58AAAOfAFPrruzAAAAGXRFWHRTb2Z0d2FyZQB3d3cuaW5rc2NhcGUub3Jnm+48GgAAAwBQTFRF////AAAAAAAAAAAAAAAAAAAAAAAAAAAAAAAAAAAAAAAAAAAAAAAAAAAAAAAAAAAAAAAAAAAAAAAAAAAAAAAAAAAAAAAAAAAAAAAAAAAAAAAAAAAAAAAAAAAAAAAAAAAAAAAAAAAAAAAAAAAAAAAAAAAAAAAAAAAAAAAAAAAAAAAAAAAAAAAAAAAAAAAAAAAAAAAAAAAAAAAAAAAAAAAAAAAAAAAAAAAAAAAAAAAAAAAAAAAAAAAAAAAAAAAAAAAAAAAAAAAAAAAAAAAAAAAAAAAAAAAAAAAAAAAAAAAAAAAAAAAAAAAAAAAAAAAAAAAAAAAAAAAAAAAAAAAAAAAAAAAAAAAAAAAAAAAAAAAAAAAAAAAAAAAAAAAAAAAAAAAAAAAAAAAAAAAAAAAAAAAAAAAAAAAAAAAAAAAAAAAAAAAAAAAAAAAAAAAAAAAAAAAAAAAAAAAAAAAAAAAAAAAAAAAAAAAAAAAAAAAAAAAAAAAAAAAAAAAAAAAAAAAAAAAAAAAAAAAAAAAAAAAAAAAAAAAAAAAAAAAAAAAAAAAAAAAAAAAAAAAAAAAAAAAAAAAAAAAAAAAAAAAAAAAAAAAAAAAAAAAAAAAAAAAAAAAAAAAAAAAAAAAAAAAAAAAAAAAAAAAAAAAAAAAAAAAAAAAAAAAAAAAAAAAAAAAAAAAAAAAAAAAAAAAAAAAAAAAAAAAAAAAAAAAAAAAAAAAAAAAAAAAAAAAAAAAAAAAAAAAAAAAAAAAAAAAAAAAAAAAAAAAAAAAAAAAAAAAAAAAAAAAAAAAAAAAAAAAAAAAAAAAAAAAAAAAAAAAAAAAAAAAAAAAAAAAAAAAAAAAAAAAAAAAAAAAAAAAAAAAAAAAAAAAAAAAAAAAAAAAAAAAAAAAAAAAAAAAAAAAAAAAAAAAAAAAAAAAAAAAAAAAAAAAAAAAAAAAAAAAAAAAAAAAAAAAAAAAAAAAAAAAAAAAAAAAAAAAAAAAAAAAAAAAAAAAAAAAAAAAAAAAAAAAAAAAAAAAAAAAACyO34QAAAP90Uk5TAAECAwQFBgcICQoLDA0ODxAREhMUFRYXGBkaGxwdHh8gISIjJCUmJygpKissLS4vMDEyMzQ1Njc4OTo7PD0+P0BBQkNERUZHSElKS0xNTk9QUVJTVFVWV1hZWltcXV5fYGFiY2RlZmdoaWprbG1ub3BxcnN0dXZ3eHl6e3x9fn+AgYKDhIWGh4iJiouMjY6PkJGSk5SVlpeYmZqbnJ2en6ChoqOkpaanqKmqq6ytrq+wsbKztLW2t7i5uru8vb6/wMHCw8TFxsfIycrLzM3Oz9DR0tPU1dbX2Nna29zd3t/g4eLj5OXm5+jp6uvs7e7v8PHy8/T19vf4+fr7/P3+6wjZNQAAGC1JREFUGBntwQmcjfX+B/DPOTNzmDGWGclYxpJJg7lCRNmuNG0TQki63SmFJJckW7Z0pRA32tDm0qZrCcU0de1bRNEUsjMZ+xhmn/P5d7v33yvFzFl+v+c8z3O+7zeEEEIIIYQQQgghhBBCCCGEEEIIIYQQQgghhBBCCCGEEEIIIYQQQgghhBBCCCGEEEIIIYQQQgghhBBCCCGEEEIIIYQQQgghhBBCCCGEEMIXkVVq1U1o0qJtYlLnHg8+0n/Q08888/Sg/o882KNzUmLbFk0S6taqEglhJ+VqNbm1+2Ojpr69ZO13P+XRA3k/fbd2ydtTRz3W/dYmtcpBWFKlpl0GT1+4LaOAfirI2LZw+uAuTStBWEBY7bYPjp6d8kM2lcv+IWX26Afb1g6DMKMyzZKnfHaoiNoVHfpsSnKzMhBmEd7kL5OWHXDTUO4Dyyb9pUk4RCCFNbz/74v3FjFgivYu/vv9DcMgjFej+0sbcmgKORte6l4DwjBl2g5blE6TSV80rG0ZCM0c9ZJf31FIkyrc8XpyPQeEHmGtx608S9M7u3Jc6zAIxeoNXJpFy8haOrAehCqVe719lJZz9O1elSH8FX77lG/ctCj3N1NuD4fwleOG4V/k0uJyvxh+gwPCayHtZh6jTRyb2S4EwguuO+ecpK2cnHOnC8Ij4Z3nnaMNnZvXORyiBGV7LrhA27qwoGdZiCuKfmhpLm0ud+lD0RCXUarb8gIGhYLl3UpBXKrZK2cYRM680gziVzFP7WLQ2fVUDMTPXPcuK2RQKlx2rwvB7oYZpxnETs+4AUGs8pCdDHo7h1RGcGq9oIDiZwULWiPolPrrNopfbftrKQSTmPEZFJfIGB+DYNH0n3kUf5D3z6YIAqHd11NcwfruobC3isOPUBTjyPCKsK+EWdkUJcielQB7umEJhUeW3AD7ab6MwmPLmsNebl5B4ZUVN8M+2qRSeC21Deyh3b8pfPLvdrC+xLUUPlubCGu7YyOFXzbeAeu6bQuF37bcBmtKWEGhxIoEWE/M7EIKRQpnx8BaIsZkUSiUNSYC1uFMPkqh2NFkJyyi/Q4KDXa0hxXUX06hyfL6MLurXy+k0Kbw9athZuEjz1NodX5kOEzrjv0U2u2/A+YU8wGFIT6Igfk4HztHYZBzjzlhMg03UhhoY0OYScSLBRSGKngxAqaRdJDCcAeTYA5VF9Aico7tXL3ozRlTnx8/8qmB/R7u1a3Tne3b39mpW6+H+w18auS456fOeHPR6p3HcmgRC6oi8JwDMmlm2T+kzJn09CNd/vynauHwUHi1P7Xt3Hvo87NX/pBNM8sc4ESANdpMczq1bdH0wV2bXg0/Vbqhy6BpC7eepDltboRACnuukGaTtfmtIXfWKwPFIuLvGPzmpvM0m8LnwhAw9bbRTLK3zR2WVMsBjRw17xr67taLNJNt9RAYjoHZNIt9H4zqFOeEQZx1Oo5470eaRfZABwKgWgpNITP1uQ6VEABXJU1IOUdTSKkGw913hgFXtHN27wQnAshR/6E3vilkwJ25D8aqMJ8Bdn7pyFvKwhQi/zx8yTkG2PwKMFD7IwykgvXjWoXCVEJuGrO2gIF0pD2MUnqam4Gze2ancjClsh1e/p6B455WGoZo/B0D5eQHvWvA1Ko/9F4GA+W7xtDPOSKfgbF1ZBMHLMDRaPgWBkb+CCc0i1nFQHCvf7IWLCT2b6uLGAirYqBV63Qar/CL/lVgOZX7rsyn8dJbQ6MnC2i0vOW9r4JFRT24JIdGK3gSupT9mAbLXdirPCwtsvuHF2mwj8tCiwY/0FibH4uCDZTtvY7G+qEBNLj/Ao2U/mJ92Ma1fz9CI124H6q5ZtJAuR/dFQJbcSa+l0MDzXRBqeobaZyvHo+GDZXvu5HG2VgdCt16kkY5PrkBbCt+UjqNcvJWqOIYVUSDbH3ABVsL67mJBika5YASUUtpjIKPWiIINH8vn8ZYGgUF4nbTEKcnxSJIVH3uJA2xOw5+a3WKRtjVJxxBpHTvb2iEU63gp1651M+99FYEnXaLi6hfbi/4ZQz1y54Rh6B0zbSL1G8MfOeaS+0uTo1B0Kr0Qha1m+uCj6JXU7cLk69GUKs48Tx1Wx0Nn8TtpmZZkyoh6EVPOEfNdsfBB61OUa/zEytC/KzC2LPU61QreK1XLrXKnBAN8T/lnzlNrXJ7wUtjqNW58VEQv1F2xClqNQbecM2lTnlToiB+J3JCNnWa64LHKqymTh/WhriM6u8UUaPVFeChStup0foWEFfQ+AtqtL0SPFI1jfr8eC9EMZLSqE9aVXig9j5qc2awC6JYIf0yqM2+2ihR/FHqkvdSFESJyv49m7ocjUcJGp2gLgvqQHgkdq6bmpxohGK1OEtN0lpDeKzZ19TkbAsUo10W9ch5xgXhhZAnL1CPrHa4oqQc6pEaB+GlGp9Qj5wkXEH3fGpx4gEIH3Q5Si3yu+OyHiqkDu43oyF8Um5GEXUofAiX8YSbOqS1gfBZs+3Uwf0E/mAEdcgd7YLwQ8iQC9RhBH6nH3X44loIP9VcSh364hJt86ledn8IBf6aSfXyW+M3ap2kel9dB6FErdVULyMWvyrzDZUrnBAKc3NFRsfUiIurERMd6YK5OZ/Oo3LbwvH/ZlG5H2+CuUTWanJrt74jJs9ZuOrbgz+dzsrjJfKyTv908NtVC+dMHtG3261NakXCXK7fSeVewf9cV0jVZkfCJK5udu+Ql5fsOEsvnd2x5OUh9za7GiZRaqqbihXUwX99RMVOdETgVWzb/9WU3Tn0U87ulFf7t62IwGt3mIrNwy+auKnW0soIqPI39/lH6nEqdTz1H31uLo+AKj+PahUl4D9WUKkLfRA4VyU9+9kRanPks2eTrkLgdD9DpRbjZ3Wo1NfXIjBczZ6Y9yMN8OO8J5q5EBjVVlGpGgAGUqU5pREA1XtM25BLA+VumNajOgIgdDJV6g8gherkPAzDle3w8vcMiO9f7lAWhuuSSXWWA5F5VGZfYxgr9Oax6woYQAVrx94cCmPV3UllssNxD5X5pAKMdO3jizNpApmLH78WRoqYR2XuxiQqUjjCAeM0HL+LJrJrfEMYqH8eFZmId6lGxi0wTLNJe2k6eyc1g2GaH6Ya72AllVhfDcZwtp5+mCZ1eHprJ4xxVQqVWIFvqcL0MBii5Ws/0dR+eq0lDOGc4KYCO3CC/svuASPEjtpDC9gzKhZGSMqk/zKQR78dvxH6hfdMKaJFFKX0DId+fzpEv+XhKP31XS1o1+KNc7SUc2+0gHYxX9Ff6fiKfkotD80qD/+BFvTD8MrQLGIR/bQNS+mfN8OgV5N382hRee82gV7OqfTPcsyiP9wjoVVI1zW0tDVdQ6DVY4X0xxyMoR9ye0CnqKEHaXkHh0ZBpzvO0w/PoiV9d/JmaBT/6kXawsVX46FRw8P03S0IOU1f7a4DfdqtcNM23CvaQZ8qW+mrzDBgHn20KhraJK6lzaxNhDYRi+mjjwD0pG8+cEGXuzbShjbeBV2cr9A3DwKIyqMv3nRCk45f0aa+6ghdnqcvCirhZzPog384oIWj63ba2PauDugxkj6Yjf+IyabXnoMWju47aXM7uzugxRNueis3Fr94gd4aBi1abWEQ2NIKWjxURC9Nw39VzKRX3P2hQ51/MUj8qw506J5Pr2Rdjf95mt4ofBAaRL2Ux6CR91IUNEjKoTdG4f85FtJzeV2hXtig0wwqpweFQb12WfTcUid+FbmTnsq+E+p13sugs7cz1Gtxlp76rhx+45rT9Mz5tlCu8RoGpTWNoVyjE/TMmThc4tZ8euL0jVCtzNRCBqnCqWWgWvwReiI/Eb/T5gRLtqsOVOtwiEHsUAeoVmUjS3aiDf6g5g6WZFEkFKv6MYPcx1WhWKl3WJIdNXEZEQtYLPc4B9RyDshk0Msc4IRigwtZrAVlcFmO/sd5ZTvvgGLXb6b42ebroVjbbbyyjP4OXEnE8DO8vB97OaFWxOQCil8UTI6AWo7uu3l5mc+UQXEqPHeaf7SvbygUa7mP4lf7WkKx0EcP8I/OT66IkoS0nrSLv1G4ZlgDqBY2sYjiN4omhkG1xmO2uvkbh2be7oJnat03+IW5KZuXzZnweKcoqNdgO8XvbG8A9ar+ZeSMBet2b/nkjfH9rodZOAbnUPxBzmAHgkLsFxSX9UUsgkCvcxRXcK4X7C76Q4pifBgNW2t+hKJYR5rDxh7PoyhB3uOwq4h5FB6YFwFbqruTwiM768KGumRSeCizC+wmdDKFFyaHwlZiVlF4ZVUMbOSmdJpQ7skDOzes/2b/iWyaUPpNsI3uOTSD7G8Xvj557JC+93e8pVm92Aqh+FVI+WrxTf/coeejT4558bWPtmfRDHK6wyZGuBlYObsWvfhou+oOeCqm9cMTF+y4wMByj4AdhM5hwOSmLZnS95YaDvimSpvekz7+5iIDZk4oLK/85wyIgs2TO9R0QgFHtdsmrM5lQHxeHhZXcxeNl7t6QmIklCrV5pmUCzTerpqwtGbHabCslGfalIIWoc2HLj1Lgx1vBgvrfJFGOvPJUzeGQivn9QM/zqCRLnaGZQ0uomEKUwY0dMAY8X2W5NEwRYNhUc/SMBueqAxDRT3yRRGN8iws6SUaZOeI2giAKoM20yAvwXqcs2iI/RMTEDB1nvmOhpjlhMWEzqcBjr98EwLs+kkHaYD5obAU1yJqd+7txBCYgKPlzAxqt8gFC4lYSc3cS7uUgmmE3D6/gJqtjIBllF1DvfLeqgeTqTH9AvVaUxYWEb2FWp2fXA0mFD36BLXaEg1LiNxBnX4aXgEmFd5/H3XaEQkLcCymRrsfLQUTC+m+jRotdMD8JlCfzV2cMLv2KdRnHEyvG7X5tC0sofH7hdTE3Rkm1+Ai9Sj4559gGbVnZlOPrOtgbsuphfvNGrCUqybnU4vFMLVW1GLzjbCc61ZSi+Yws7XUIONhB6zongPUIBUmdhfVK5heHhZVemw21bsF5rWeyn3ZABZW819U7t8wravdVOxwN1hc4vdUrLAizCqZauVOiIDlhQ05T7V6wawWUKkl18AWYua6qdJ7MKmwTCq0+w7Yxs1fU6EzITCnllQn62kXbMTZ7zTVaQFz6klltsbBZqp+SWV6wJwGU5VpLtiOc3QhFRkEc3qRapy6G7bU+gjVmARzmkslVlWDTUUvoRLvwJxWUoHCsU7Y1xO5VOAzmNPH9N/RNrC1xrvpv4Uwpxn02ycVYXORc+m3V2FOo+invL8hCDyYRT+Nhjn1pn/2NEFQqLud/nkU5nQX/TKvLIJEqZfpl7thTpXd9N2FZASRTqfph1iY1Bb67EgDBJWa39NnO2BWY+irtFgEmYqb6KvnYFY30EcbohF0IpbTRy1gVo50+mRpOIJQ6Dv0yQknTGs8ffFWKIKS4wX64gWYV7lT9N5EBK1BbnotMxomNpTecg9EELs/n94aDTMLT6d38nogMFzRNerfeEvH++/veMuN9WtEuxAYiVn0zslImFo/euV8exipVL2OQ15L2ZJ2+Ew+fyf/zOG0LStfGZR0bSiM1PQEvTIY5uZYTC8cbwJjuOI7DH7184NF9EDB3uXTH0+s5YQx4vbTCytDYHJl0+ixH+vAAPF95u8rotdyd81+oAYMELOdHtsTBdO79iw9tK0yNHM0HLAgg3448O7DcdCt3Jf0UGY9WMCdRfRIalnoFNJ0yJIzVODY+4/Vd0CnUh/RI0VJsIReOfTAHBf0iXrk0/NU6OTH95eBPs4X6IGcXrCIZsdYkoIB0CbiviV5VO7i+x1c0KZnNktyrBkso8omFu/kn6FJWNL8C9TkzKx2TmjS5DCLt6kKLKTUG0UsxoZa0MLR9vVT1OrYS02hx9UrWYyiN0rBWhKW8Eq+6Qgtrp9yhAbYM/5aaJG4lVeyrCGsp8WXvJzd9zmgQ2IqjeJecjN0cHTfw8tZ3xrWdOOE7bzUgZl3hECDkB5f01Br73ZAg9COs47xUt9PbgMLq9bn/bV7L5DMO7Rp0dMNoEV4/3003K4Hw6CDo8mYFd+e4s+Kftq2aOA1sIPI2tHQJuqZDAbE4UFloEupWo2rhUKUrPpLWQyY089Wggikmu/kM6CyZ1aGCJTwcdkMuMzBoRAB0fUgTWFXOwjj1U+laXxYHcJY5acV0EQujHBBGMfxcAZNZs+dEEZpvoUmtKQ2hBHKv+WmKeWMDYXQrvkBmtbGWhB6OZ4uoImd7QqhU+WVNLlXS0Nok3icpvdNPIQeoc+7aQEXkiF0qLmBFjEvEkK5rmdpGXsaQ6hV+jVaSd5ACJUqrKbFzA6BUKbqt7ScRaUhFIk/RAtaUwFCiRanaEnfVoFQIOkiLepAXQi/JRfQsk40hfDTcFpZViKEPxz/oLXl94TwnesDWp37bxC+Cl1BGxgL4aMZtIVeED7pTXvIaQrhg5vyaBNHYyC8FvMTbWNjGIS33qCNDIDwUlwBbeR4GQjvvEdbGQnhlevdtJWzURDeWECbGQ/hhdIXaTNpEF64i7ZzDYTnXqHtPAHhuUO0nRUQHruOmhXt35S6eP4bU8cPHTp+6hvzF6du2l9EvXJLQ3jqdmqTvmrWU53qufAHrnqdnpq1Kp3axEF4Kpk6FH09vctVKMFVXaZ/XUQdWkN4ajhVK9z0YlIFeKhC0oubCqlaNwhPTadS7jX9K8FLlfqvcVOpgRCeep8KbXsqFj6JfWobFZoI4am3qMrRMXXhh7pjjlKVcRCemkg10h5ywU+uh9KoRj8ITz1BFTZ0ckABR6cNVOEeCE91o9/cy1pDmdbL3PRbcwhPtaK/1jWGUo3X0V81ITxVoYB+SX8Ayj2QTr+cDYHw2Gr6IX9yWWhQdnI+/fA+hOeG0ncp8dAkPoW+6wXhufr01el7odG9p+mjwooQXthP36yLhVax6+ibdRDeGE1fuCeGQrPQiW764hEIb0SeoPeOJ8IAicfpvT2hEF55kl5LjYEhYlLptfsgvFP6CL30rBMGcT5LL+1wQHipD71S1BcG6ltEr9wF4S3HUnohtwsM1SWXXpgN4b1yP9Bj59rCYG3P0WPrXRA+uC6THkpvCMM1TKeHjlSG8MndbnpkT20EQO099EhOUwgf9c6nB9ZUQkBUWkMPnE+C8FmrDJbolTAESNjrLNG+BhB+iN3K4uX1RgD1zWfxUqMh/BL+DotzqAUCqvVRFqNoWiiEv25M5ZVk/K0UAix82BleydIECBXab+blnB1VBiZQYVI2L2dtSwhVEmce4KUuLu0XBZOoOnRVAS918JX2EEo1ePrz3Zn8j/wjW165qzRMpcJ983ad5i9y9n85LAFCi4hrbkqo6IBJuWrc2Da+AoQQQgghhBBCCCGEEEIIIYQQQgRUdMJtySNHJt+WEA0RZGoOTNmfy1/l7k8ZWBMiSDQat52XsX1cIwjbixx7kFd0cGwkhJ2FDchgsTIGhEHYlaPHjyzRjz0cELbUcis9srUlhA31K6CHCvpB2E3oTHphZiiErUSn0iup0RA2Um8vvbS3HoRtxJ+l187GQ9hE1B76YE8UhC2Efk6ffB4KYQcz6KMZEDbQlz7rC2F5N+XTZ/k3QVjdZvphM4TFdaNfukFYWthe+mVvGISVPU4/PQ5hYZEZ9FNGJIR1jaXfxkJY10H67SCEZTWiAo0grGocFRgHYVXbqcB2CIuqSSVqQljTQCoxEMKaUqhECoQ17acS+yGsKZdK5EJYUjQViYawogQqkgBhRbdRkdsgrCiZiiRDWNFIKjISwopGUpGREFaUTEWSIazoNipyG4QVJVCRBAgriqYi0RCWlEMlciCsaT+V2A9hTSuoxAoIaxpAJQZAWFMslYiFsKhtVGAbhFWNpgKjIayqIRVoCGFZ++m3/RDWNYp+GwVhXRHp9FN6BISF9aGf+kBYWcj39Mv3IRCWdg/9cg+Exa2nH9ZDWF3TPPosrymE5SXTZ8kQNjCFPpoCYQfOT+mTT50QtlAujT5IKwdhE3Gn6LVTcRC2EZdGL6XFQdhIuU/plU/LQdiKcwq9MMUJYTfJefRQXjKEDTVdR4+sawphT53SWKK0ThC2FfLIMRbr2CMhEHYWPmw3r2j3sHAI24sfvtHNP3BvHB4PESRi+nySdo6/Opf2SZ8YiCATEdfmviefvK9NXASEEEIIIYQQQgghhBBCCCGEEEIIIYQQQgghhBBCCCGEEEIIIYQQQgghhBBCCCGEEEIIIYQQQgghhBBCCCGEEEIIIYQQQgghhBBCCCGEEMJf/wc940SxAkgudwAAAABJRU5ErkJggg==;rotation=0;" vertex="1" parent="1">
          <mxGeometry x="890" y="890" width="60" height="60" as="geometry" />
        </mxCell>
        <mxCell id="sZKUpHweLC7dckefDk7g-121" value="" style="endArrow=classic;startArrow=classic;html=1;rounded=0;exitX=0.5;exitY=0;exitDx=0;exitDy=0;entryX=0.5;entryY=0;entryDx=0;entryDy=0;" edge="1" parent="1" source="sZKUpHweLC7dckefDk7g-120" target="sZKUpHweLC7dckefDk7g-118">
          <mxGeometry width="50" height="50" relative="1" as="geometry">
            <mxPoint x="550" y="1030" as="sourcePoint" />
            <mxPoint x="600" y="980" as="targetPoint" />
            <Array as="points">
              <mxPoint x="920" y="805" />
            </Array>
          </mxGeometry>
        </mxCell>
        <mxCell id="sZKUpHweLC7dckefDk7g-122" value="REST API" style="edgeLabel;html=1;align=center;verticalAlign=middle;resizable=0;points=[];" vertex="1" connectable="0" parent="sZKUpHweLC7dckefDk7g-121">
          <mxGeometry x="-0.2493" relative="1" as="geometry">
            <mxPoint as="offset" />
          </mxGeometry>
        </mxCell>
        <mxCell id="sZKUpHweLC7dckefDk7g-123" value="&lt;font style=&quot;font-size: 30px;&quot;&gt;System Diagram 2&lt;/font&gt;" style="text;html=1;align=center;verticalAlign=middle;resizable=0;points=[];autosize=1;strokeColor=none;fillColor=none;" vertex="1" parent="1">
          <mxGeometry x="400" y="690" width="270" height="50" as="geometry" />
        </mxCell>
        <mxCell id="sZKUpHweLC7dckefDk7g-124" value="" style="endArrow=classic;html=1;rounded=0;entryX=0;entryY=0.5;entryDx=0;entryDy=0;exitX=0.5;exitY=1;exitDx=0;exitDy=0;" edge="1" parent="1" source="sZKUpHweLC7dckefDk7g-90" target="sZKUpHweLC7dckefDk7g-119">
          <mxGeometry width="50" height="50" relative="1" as="geometry">
            <mxPoint x="460" y="1120" as="sourcePoint" />
            <mxPoint x="510" y="1070" as="targetPoint" />
            <Array as="points">
              <mxPoint x="225" y="1050" />
              <mxPoint x="780" y="1050" />
              <mxPoint x="780" y="1000" />
            </Array>
          </mxGeometry>
        </mxCell>
        <mxCell id="sZKUpHweLC7dckefDk7g-131" value="RS485 Serial Line" style="edgeLabel;html=1;align=center;verticalAlign=middle;resizable=0;points=[];" vertex="1" connectable="0" parent="sZKUpHweLC7dckefDk7g-124">
          <mxGeometry x="0.4566" y="1" relative="1" as="geometry">
            <mxPoint x="17" as="offset" />
          </mxGeometry>
        </mxCell>
        <mxCell id="sZKUpHweLC7dckefDk7g-125" value="" style="endArrow=none;html=1;rounded=0;entryX=0.5;entryY=1;entryDx=0;entryDy=0;" edge="1" parent="1" target="sZKUpHweLC7dckefDk7g-91">
          <mxGeometry width="50" height="50" relative="1" as="geometry">
            <mxPoint x="315" y="1050" as="sourcePoint" />
            <mxPoint x="600" y="880" as="targetPoint" />
          </mxGeometry>
        </mxCell>
        <mxCell id="sZKUpHweLC7dckefDk7g-126" value="" style="endArrow=none;html=1;rounded=0;entryX=0.5;entryY=1;entryDx=0;entryDy=0;" edge="1" parent="1" target="sZKUpHweLC7dckefDk7g-92">
          <mxGeometry width="50" height="50" relative="1" as="geometry">
            <mxPoint x="405" y="1050" as="sourcePoint" />
            <mxPoint x="360" y="1110" as="targetPoint" />
          </mxGeometry>
        </mxCell>
        <mxCell id="sZKUpHweLC7dckefDk7g-127" value="" style="endArrow=none;html=1;rounded=0;entryX=0.5;entryY=1;entryDx=0;entryDy=0;" edge="1" parent="1" target="sZKUpHweLC7dckefDk7g-93">
          <mxGeometry width="50" height="50" relative="1" as="geometry">
            <mxPoint x="495" y="1050" as="sourcePoint" />
            <mxPoint x="415" y="1020" as="targetPoint" />
          </mxGeometry>
        </mxCell>
        <mxCell id="sZKUpHweLC7dckefDk7g-128" value="" style="endArrow=none;html=1;rounded=0;entryX=0.5;entryY=1;entryDx=0;entryDy=0;" edge="1" parent="1" target="sZKUpHweLC7dckefDk7g-94">
          <mxGeometry width="50" height="50" relative="1" as="geometry">
            <mxPoint x="585" y="1050" as="sourcePoint" />
            <mxPoint x="505" y="1020" as="targetPoint" />
          </mxGeometry>
        </mxCell>
        <mxCell id="sZKUpHweLC7dckefDk7g-129" value="" style="endArrow=none;html=1;rounded=0;entryX=0.5;entryY=1;entryDx=0;entryDy=0;" edge="1" parent="1" target="sZKUpHweLC7dckefDk7g-95">
          <mxGeometry width="50" height="50" relative="1" as="geometry">
            <mxPoint x="675" y="1050" as="sourcePoint" />
            <mxPoint x="595" y="1020" as="targetPoint" />
          </mxGeometry>
        </mxCell>
        <mxCell id="sZKUpHweLC7dckefDk7g-132" value="Disadvantages :&lt;br&gt;&lt;div style=&quot;&quot;&gt;&lt;span style=&quot;background-color: initial;&quot;&gt;1. Slave ID need to be harcoded / Store into EEPROM. Adding more slave means more memory required to store the dtsu666 data&lt;/span&gt;&lt;/div&gt;&lt;div style=&quot;&quot;&gt;&lt;span style=&quot;background-color: initial;&quot;&gt;2. The majority of system load is on the MCU (Control relay, reading from dtsu666 &amp;amp; handle POST GET request)&lt;/span&gt;&lt;/div&gt;&lt;div style=&quot;&quot;&gt;&lt;span style=&quot;background-color: initial;&quot;&gt;3. Hard to customize program, since the main protection program is on MCU. Upload and changing firmware takes more time and resources&lt;/span&gt;&lt;/div&gt;" style="text;html=1;align=left;verticalAlign=middle;resizable=0;points=[];autosize=1;strokeColor=none;fillColor=none;" vertex="1" parent="1">
          <mxGeometry x="190" y="490" width="770" height="70" as="geometry" />
        </mxCell>
        <mxCell id="sZKUpHweLC7dckefDk7g-133" value="Advantages :&lt;br&gt;&lt;div style=&quot;&quot;&gt;&lt;span style=&quot;background-color: initial;&quot;&gt;1. Protection system can be programmed on MCU because it has data of dtsu666. Lost connection from control system will not impact&amp;nbsp;&lt;/span&gt;&lt;/div&gt;&lt;div style=&quot;&quot;&gt;&lt;span style=&quot;background-color: initial;&quot;&gt;on main system protection&lt;/span&gt;&lt;/div&gt;&lt;div style=&quot;&quot;&gt;&lt;span style=&quot;background-color: initial;&quot;&gt;2. Control system does not need establish serial communication, thus make it easier to develop since the only protocol is REST&lt;/span&gt;&lt;/div&gt;" style="text;html=1;align=left;verticalAlign=middle;resizable=0;points=[];autosize=1;strokeColor=none;fillColor=none;" vertex="1" parent="1">
          <mxGeometry x="190" y="570" width="740" height="70" as="geometry" />
        </mxCell>
        <mxCell id="sZKUpHweLC7dckefDk7g-134" value="Disadvantages :&lt;br&gt;&lt;div style=&quot;&quot;&gt;&lt;span style=&quot;background-color: initial;&quot;&gt;1. Main system protection can&#39;t be programmed into MCU&lt;/span&gt;&lt;/div&gt;&lt;div style=&quot;&quot;&gt;&lt;span style=&quot;background-color: initial;&quot;&gt;2. Control system need to establish serial connection thus make it more complicated (REST &amp;amp; Modbus)&lt;/span&gt;&lt;/div&gt;&lt;div style=&quot;&quot;&gt;&lt;span style=&quot;background-color: initial;&quot;&gt;3. A very good communication network required to maintain connection between control system and MCU. Lost connection will result on lost&lt;/span&gt;&lt;/div&gt;&lt;div style=&quot;&quot;&gt;main system protection&lt;/div&gt;" style="text;html=1;align=left;verticalAlign=middle;resizable=0;points=[];autosize=1;strokeColor=none;fillColor=none;" vertex="1" parent="1">
          <mxGeometry x="190" y="1085" width="770" height="90" as="geometry" />
        </mxCell>
        <mxCell id="sZKUpHweLC7dckefDk7g-135" value="Advantages :&lt;br&gt;&lt;div style=&quot;&quot;&gt;&lt;span style=&quot;background-color: initial;&quot;&gt;1. it is easier to add more slave devices&lt;/span&gt;&lt;/div&gt;&lt;div style=&quot;&quot;&gt;&lt;span style=&quot;background-color: initial;&quot;&gt;2. Simpler to customize program since the main program is on control system.&amp;nbsp;&lt;/span&gt;&lt;span style=&quot;background-color: initial;&quot;&gt;MCU main job is to control relay board thus&lt;/span&gt;&lt;/div&gt;&lt;div style=&quot;&quot;&gt;&lt;span style=&quot;background-color: initial;&quot;&gt;minimize MCU upload and change firmware which takes up more time and resources&lt;/span&gt;&lt;/div&gt;" style="text;html=1;align=left;verticalAlign=middle;resizable=0;points=[];autosize=1;strokeColor=none;fillColor=none;" vertex="1" parent="1">
          <mxGeometry x="190" y="1175" width="670" height="70" as="geometry" />
        </mxCell>
      </root>
    </mxGraphModel>
  </diagram>
</mxfile>
